<?xml version="1.0" encoding="UTF-8"?>
<svg version="1.1" viewBox="0 0 600 800" xmlns="http://www.w3.org/2000/svg" xmlns:cc="http://creativecommons.org/ns#" xmlns:dc="http://purl.org/dc/elements/1.1/" xmlns:rdf="http://www.w3.org/1999/02/22-rdf-syntax-ns#" xmlns:xlink="http://www.w3.org/1999/xlink">
<metadata>
<rdf:RDF>
<cc:Work rdf:about="">
<dc:format>image/svg+xml</dc:format>
<dc:type rdf:resource="http://purl.org/dc/dcmitype/StillImage"/>
<dc:title/>
</cc:Work>
</rdf:RDF>
</metadata>
<defs>
<path id="chanceflurries" d="m42.732,50.287,3.955,5.841,7.365,0,3.398-5.841-3.58-6.22-7.379,0zm3.033,46.974,0-13.207-7.379,4.15-3.759-2.152,0-4.653,10.943-6.22,0-8.68-7.939,5.102,0-9.196-7.589,4.374,0,12.468-4.151,2.572-3.508-2.321,0-8.356-11.518,6.498-4.919-2.07,0-5.27,12.089-6.609-7.561-3.801,0-4.822,4.291-2.349,10.845,6.386,7.533-4.346-0.182-0.139-7.701-4.417,7.477-4.64-7.505-4.346-10.844,6.372-4.068-2.026,0-4.808,7.339-4.123-11.713-6.36,0-5.269,4.5-2.319,11.544,6.666,0-8.497,3.48-2.348,4.264,2.46-0.028,12.718,7.756,4.43-0.027-8.986,8.134,4.375,0-8.68-10.943-6.233,0-4.612,3.759-2.18,7.379,4.151,0-13.18,4.222-2.768,4.261,2.768,0,13.18,7.646-4.235,3.845,2.544,0,4.151-11.322,6.414,0,8.68,7.744-4.724,0,9.448,7.979-4.348,0-13.598,3.844-1.789,4.038,1.789,0,8.694,11.879-6.416,4.153,2.53,0,4.919-11.601,6.597,7.254,4.066,0,4.697-3.76,2.083-11.138-6.583-7.702,4.892,7.449,4.642-7.673,4.416,7.926,4.15,11.138-6.221,3.578,2.53,0,4.487-6.988,3.927,11.126,6.61,0,5.188-4.71,2.152-10.931-6.221,0,8.232-3.927,2.194-3.843-2.194,0-12.496-8.092-4.611,0,8.68-7.744-4.725,0,8.68,10.944,6.22,0,4.92-3.776,1.886-7.337-4.15,0,13.207-4.26,2.738z" />
<path id="chancerain" d="M51.188,6.8125c-12.627,0-22.762,10.028-23.5,22.468-6.17,0.593-10.961,5.238-12.063,11.25-0.362-0.038-0.648-0.156-1.031-0.156-6.7074,0-12.219,5.485-12.219,12.187,0,3.353,1.5923,6.174,3.9375,7.75,2.3476,1.577,5.2555,2.094,8.2815,2.094h31.156,16.969,15.625c10.619,0,19.281-8.66,19.281-19.281s-8.66-19.281-19.281-19.281c-1.612,0-3.065,0.434-4.532,0.812-2.683-10.171-11.627-17.844-22.624-17.844zm0,4.5315c9.607,0,17.453,7.119,18.906,16.312l0.437,2.75,2.625-1.062c1.65-0.626,3.378-0.938,5.188-0.938,8.171,0,14.75,6.55,14.75,14.719,0,8.171-6.579,14.719-14.75,14.719h-15.625-16.969-31.156c-2.455,0-4.507-0.508-5.7502-1.344-1.2429-0.833-1.9376-1.809-1.9376-3.938,0-4.249,3.4328-7.656,7.6878-7.656,0.705,0,1.37,0.14,2.156,0.375l2.969,0.907v-3.063c0-0.14-0.056-0.14-0.063-0.219,0-0.128-0.012-0.127,0-0.156-0.002-0.012,0.002-0.058,0-0.062,0.119-5.058,4.196-9.094,9.282-9.094-0.074,0,0.173,0.058,0.687,0.094l2.531,0.124-0.094-2.531c-0.028-0.621-0.156-0.801-0.156-0.656,0-10.645,8.629-19.281,19.282-19.281zm-27.719,57.125l-9.031,24.781,1.937,0.719,9.313-25.5h-2.219zm17.219,0l-9.032,24.781,1.938,0.719,9.281-25.5h-2.187zm17.218,0l-9.031,24.781,1.937,0.719,9.282-25.5h-2.188zm17.188,0l-9,24.781,1.937,0.719,9.281-25.5h-2.218z" />
<path id="chancesleet" d="M25.5,2l-2.25,1.4688v7.0312l-3.938-2.1875-2,1.1563v2.4692l5.844,3.312v4.625l-4.344-2.313v4.782l-4.124-2.375v-6.781l-2.25-1.313-1.876,1.25v4.531l-6.1558-3.531-2.4062,1.219v2.812l6.25,3.406-3.9062,2.188v2.562l2.1562,1.094,5.781-3.406,4.031,2.312-4,2.5,4.126,2.344,0.093,0.094-4.031,2.312-5.7812-3.406-2.3126,1.25v2.563l4.0626,2.031-6.4688,3.531v2.813l2.625,1.094,6.156-3.469v4.469l1.875,1.25,2.219-1.376v-6.656l4.031-2.344v4.907l4.25-2.719v4.625l-5.844,3.344v2.469l2,1.156,3.938-2.219v7.063l2.25,1.437,2.281-1.437v-7.063l3.938,2.219,2-1v-2.625l-5.844-3.344v-4.625l4.125,2.531v-4.625l4.344,2.438v6.687l2.031,1.157,2.094-1.157v-4.406l5.843,3.313,2.532-1.126v-2.781l-5.938-3.531,3.719-2.094v-2.406l-1.906-1.344-5.969,3.313-4.219-2.188,4.094-2.375-3.969-2.468,4.094-2.626,5.969,3.532,2-1.125v-2.5l-3.875-2.188,6.187-3.5v-2.625l-2.219-1.375-6.343,3.438v-4.657l-2.157-0.937-2.031,0.937v7.282l-4.281,2.312v-5.031l-4.125,2.5v-4.625l6.063-3.438v-2.187l-2.063-1.375-4.094,2.25v-7.0312l-2.281-1.4688zm68.438,1.9375l-90,90,2.125,2.124,90-90-2.124-2.125zm-70.282,21.594h3.938l1.906,3.313-1.812,3.125h-3.938l-2.125-3.125,2.031-3.313zm44.438,16.438c-8.046,0-14.563,6.521-14.563,14.562,0,0.182,0.024,0.35,0.031,0.531-0.181-0.012-0.349-0.062-0.531-0.062-4.328,0-7.843,3.515-7.843,7.844,0,0.053,0.031,0.103,0.031,0.156-0.62-0.186-1.26-0.312-1.938-0.312-3.713,0-6.719,3.009-6.719,6.718,0,3.713,3.006,5.125,6.719,5.125h43.188c6.364-0.002,11.531-5.166,11.531-11.531,0-6.364-5.167-11.5-11.531-11.5-1.438,0-2.799,0.271-4.063,0.75-1.098-6.956-7.051-12.281-14.312-12.281zm-17.094,38.343l-5.562,15.25,1.187,0.438,5.719-15.688h-1.344zm6.344,0l-5.563,15.25,1.188,0.438,5.719-15.688h-1.344zm6.344,0l-5.563,15.25,1.187,0.438,5.719-15.688h-1.343zm6.343,0l-5.562,15.25,1.187,0.438,5.719-15.688h-1.344zm6.344,0l-5.563,15.25,1.188,0.438,5.719-15.688h-1.344zm6.344,0l-5.563,15.25,1.188,0.438,5.718-15.688h-1.343z" />
<path id="chancesnow" d="m42.732,50.287,3.955,5.841,7.365,0,3.398-5.841-3.58-6.22-7.379,0zm3.033,46.974,0-13.207-7.379,4.15-3.759-2.152,0-4.653,10.943-6.22,0-8.68-7.939,5.102,0-9.196-7.589,4.374,0,12.468-4.151,2.572-3.508-2.321,0-8.356-11.518,6.498-4.919-2.07,0-5.27,12.089-6.609-7.561-3.801,0-4.822,4.291-2.349,10.845,6.386,7.533-4.346-0.182-0.139-7.701-4.417,7.477-4.64-7.505-4.346-10.844,6.372-4.068-2.026,0-4.808,7.339-4.123-11.713-6.36,0-5.269,4.5-2.319,11.544,6.666,0-8.497,3.48-2.348,4.264,2.46-0.028,12.718,7.756,4.43-0.027-8.986,8.134,4.375,0-8.68-10.943-6.233,0-4.612,3.759-2.18,7.379,4.151,0-13.18,4.222-2.768,4.261,2.768,0,13.18,7.646-4.235,3.845,2.544,0,4.151-11.322,6.414,0,8.68,7.744-4.724,0,9.448,7.979-4.348,0-13.598,3.844-1.789,4.038,1.789,0,8.694,11.879-6.416,4.153,2.53,0,4.919-11.601,6.597,7.254,4.066,0,4.697-3.76,2.083-11.138-6.583-7.702,4.892,7.449,4.642-7.673,4.416,7.926,4.15,11.138-6.221,3.578,2.53,0,4.487-6.988,3.927,11.126,6.61,0,5.188-4.71,2.152-10.931-6.221,0,8.232-3.927,2.194-3.843-2.194,0-12.496-8.092-4.611,0,8.68-7.744-4.725,0,8.68,10.944,6.22,0,4.92-3.776,1.886-7.337-4.15,0,13.207-4.26,2.738z" />
<path id="chancetstorms" d="M51.312,3.5625c-13.094,0-23.718,10.63-23.718,23.718,0,0.296,0.08,0.548,0.094,0.844-0.296-0.02-0.58-0.063-0.876-0.063-7.044,0-12.75,5.706-12.75,12.75,0,0.088,0.032,0.164,0.032,0.25-1.008-0.302-2.054-0.5-3.156-0.5-6.0435,0-10.938,4.901-10.938,10.938,0,6.043,4.8945,8.312,10.938,8.312h70.312c10.358,0,18.75-8.39,18.75-18.75,0-10.358-8.391-18.75-18.75-18.75-2.34,0-4.568,0.502-6.625,1.282-1.788-11.321-11.495-20.032-23.313-20.032zm-4.593,58.656l-11.969,20.531h8.562l-6.843,13.688,20.531-20.532h-10.281l8.562-13.687h-8.562zm-23.25,3.781l-9.031,24.812,1.937,0.719,9.313-25.531h-2.219zm10.343,0l-9.031,24.812,1.938,0.719,9.281-25.531h-2.188zm30.969,0l-9.031,24.812,1.938,0.719,9.281-25.531h-2.188zm10.313,0l-9,24.812,1.937,0.719,9.281-25.531h-2.218z" />
<path id="clear" d="M47.812,0v17.062h4.469v-17.062h-4.469zm-19.718,4.875l-3.782,2.375,9,14.438,3.782-2.344-9-14.469zm44.187,0.4375l-8.25,14.906,3.938,2.187,8.219-14.906-3.907-2.1875zm-63.625,16.25l-2.1874,3.938,14.843,8.25,2.188-3.906-14.844-8.282zm41.406,0.657c-15.25,0-27.624,12.417-27.624,27.719,0,15.3,12.374,27.721,27.624,27.718,15.24,0,27.594-12.416,27.594-27.718s-12.356-27.719-27.594-27.719zm41.75,0.531l-14.718,8.531,2.218,3.907,14.719-8.532-2.219-3.906zm-91.812,23.688v4.468h17v-4.468h-17zm83,0.25v4.5h17v-4.5h-17zm-63.594,15.687l-14.406,9.031,2.3438,3.813,14.406-9.063-2.344-3.781zm60.5,0.969l-2.187,3.906,14.875,8.281,2.187-3.937-14.875-8.25zm-11.312,13.625l-3.875,2.219,8.5,14.781,3.875-2.25-8.5-14.75zm-37.156,0.093l-8.25,14.938,3.906,2.156,8.25-14.937-3.906-2.157zm16.093,5.876v17.062h4.469v-17.062h-4.469z" />
<path id="cloudy" d="M33.469,15v11.938h3.125v-11.938h-3.125zm-13.813,3.406l-2.656,1.656,6.312,10.126,2.657-1.657-6.313-10.125zm30.938,0.313l-4.719,8.531c-2.986,0.663-5.776,1.865-8.25,3.5-0.847-0.119-1.715-0.188-2.594-0.188-10.675,0-19.312,8.695-19.312,19.407,0,1.947,0.305,3.825,0.843,5.593-0.978,1.235-1.775,2.642-2.312,4.157l-0.688-1.063-10.062,6.344,0.3438,0.562c-2.3766,2.331-3.8438,5.561-3.8438,9.126,0,3.52,1.6295,6.439,4.0938,8.093,2.4642,1.654,5.5401,2.219,8.7182,2.219h20.469,3.125,9.125,17.844,16.375c11.15,0,20.25-9.098,20.25-20.25s-9.099-20.219-20.25-20.219c-1.607,0-3.124,0.264-4.594,0.625-2.866-10.607-12.411-18.5-23.906-18.5-0.499,0-0.977,0.034-1.469,0.063l3.563-6.469-2.75-1.531zm-44.532,11.375l-1.5313,2.75,10.407,5.781,1.5-2.75-10.376-5.781zm45.188,1.344c10.088,0,18.319,7.377,19.844,17.031l0.468,2.906,2.75-1.031c1.734-0.658,3.538-1.063,5.438-1.063,8.58,0,15.5,6.89,15.5,15.469s-6.921,15.5-15.5,15.5h-16.375-17.844-32.719c-2.576,0-4.757-0.53-6.062-1.406s-2-1.922-2-4.156c0-4.463,3.5946-8.032,8.062-8.032,0.74,0,1.486,0.128,2.313,0.375l3.063,0.938v-3.219c0-0.288,0.007-0.458,0-0.5,0.133-5.302,4.412-9.5,9.75-9.5-0.078,0,0.118,0.026,0.656,0.062l2.656,0.188-0.125-2.656c-0.029-0.651-0.063-0.871-0.063-0.719,0-11.178,9.002-20.187,20.188-20.187zm-51.25,16.062v3.125h11.906v-3.125h-11.906z" />
<path id="dust" d="M51.312,0c-5.182,0-9.974,1.68-13.874,4.5h27.687c-3.879-2.82-8.641-4.5-13.813-4.5zm-18.312,8.625c-1.135,1.375-2.102,2.891-2.906,4.5h42.312c-0.806-1.614-1.771-3.121-2.906-4.5h-36.5zm-4.5,8.625c-0.41,1.451-0.686,2.95-0.812,4.5h63.718c-2.932-1.897-6.403-3-10.156-3-2.34,0-4.568,0.47-6.625,1.25-0.15-0.948-0.368-1.843-0.625-2.75h-45.5zm-7.438,8.625c-2.04,1.037-3.774,2.58-5,4.5h82.532c-0.668-1.626-1.551-3.141-2.625-4.5h-74.907zm-6.718,8.625c-0.192,0.879-0.282,1.814-0.282,2.75,0,0.087,0.032,0.163,0.032,0.25-1.008-0.302-2.054-0.531-3.156-0.531-2.3638,0-4.5566,0.758-6.3442,2.031h95.344c0.038-0.499,0.062-0.991,0.062-1.5,0-1.025-0.092-2.02-0.25-3h-85.406zm-13.25,8.625c-0.66562,1.366-1.0531,2.889-1.0938,4.5h97.031c0.893-1.385,1.589-2.896,2.094-4.5h-98.031zm-0.25005,8.625c1.6598,3.194,5.5612,4.5,10.094,4.5h70.312c4.652,0,8.91-1.698,12.188-4.5h-92.594zm38.468,10.75c-0.759-0.008-1.556,0.309-2.25,0.938-1.335,1.169-1.566,2.837-1.562,4.343,0,0.72,0.028,1.412,0.062,2.094-0.312-0.273-0.654-0.545-1.093-0.813-0.923-0.583-1.719-0.901-2.5-0.906-1.983,0.081-2.569,1.987-2.625,4.063-2.107,1.723-2.485,8.9,1.25,7.656,2.024-0.679,2.888-3.279,2.687-5.063,0,0-0.133-2.52-2.406-2.906,0.113-1.699,0.571-2.25,1.094-2.25,0.322-0.007,0.906,0.152,1.687,0.656,1.414,0.98,1.839,1.344,2,2.25,0.022,0.858,0.123,2.878,0.125,2.969,0.215,3.013,0.671,5.308,1,8.344h-15.375l2.406,1.125,10.188,3.406,9.406-1.625,6.594,2.313,5.219-1.625,1.562-3.594h-17.75c-0.332-3.103-1.537-5.565-1.75-8.563,0.025-1.026,0.014-1.776-0.125-2.75-0.014-0.558-0.062-1.052-0.062-1.624,0-1.092-0.094-2.176-0.094-3.157,0.005-1.388,0.215-2.473,1.062-3.219,0.506-0.442,0.912-0.556,1.25-0.562,0.889-0.094,2.063,1.286,2.657,2.844-0.523,0.425-0.813,0.812-0.813,0.812-2.021,2.831,5.595,10.919,8.625,6.563,1.297-1.864-0.371-7.221-3.437-8.281-1.201-0.418-2.252-0.24-3.094,0.124-0.718-1.754-1.95-3.466-3.938-3.562zm4.282,4.281s3.683,2.507,4.718,6.969l-5.781-6.312,1.063-0.657zm-13.032,6.063l-1.031,5.781c-0.517-1.831,0-5.344,0-5.344l1.031-0.437zm-30.562,11.031v6.375l5.2188-2.781,1.5624-3.594h-6.7812zm8.6875,0l-2.0937,4.187,4.7812,6,4.594-2.75,4.781-5.937-1.469-1.5h-10.594zm50,0l-2.094,4.187,4.781,6,4.594-2.75,4.781-5.937-1.469-1.5h-10.593zm12.718,0l2.406,1.125,10.188,3.406,7.938-1.125,8.062-2.562v-0.844h-28.594zm-48.718,2.281l-4.563,5.656,12.5,6.782,7.625-1.469-5.375-7.594-10.187-3.375zm50,0l-4.563,5.656,12.5,6.782,7.625-1.469-5.375-7.594-10.187-3.375zm27.312,0l-5.281,1.406,5.281,1.532v-2.938zm-56.781,2.594l-7.688,1.031,5.031,7.313,13.344,2.906,5.813-4.75-4.375-5.75-5.344,1.438-6.781-2.188zm50,0l-7.688,1.031,5.031,7.313,9.438,2.218v-8.374l-6.781-2.188zm-87.875,0.75l-5.3438,2.562v7.938h3.9062l5.8126-4.781-4.375-5.719zm11.406,3.625l-8.1562,5.531,1.0937,1.344h18.718l-0.062-0.281-11.594-6.594zm50,0l-8.156,5.531,1.094,1.344h18.718l-0.062-0.281-11.594-6.594zm-27.062,5.469l-6.376,1.406h12.219l-5.843-1.406zm50,0l-6.376,1.406h12.219l-5.843-1.406z" />
<path id="flurries" d="m42.732,50.287,3.955,5.841,7.365,0,3.398-5.841-3.58-6.22-7.379,0zm3.033,46.974,0-13.207-7.379,4.15-3.759-2.152,0-4.653,10.943-6.22,0-8.68-7.939,5.102,0-9.196-7.589,4.374,0,12.468-4.151,2.572-3.508-2.321,0-8.356-11.518,6.498-4.919-2.07,0-5.27,12.089-6.609-7.561-3.801,0-4.822,4.291-2.349,10.845,6.386,7.533-4.346-0.182-0.139-7.701-4.417,7.477-4.64-7.505-4.346-10.844,6.372-4.068-2.026,0-4.808,7.339-4.123-11.713-6.36,0-5.269,4.5-2.319,11.544,6.666,0-8.497,3.48-2.348,4.264,2.46-0.028,12.718,7.756,4.43-0.027-8.986,8.134,4.375,0-8.68-10.943-6.233,0-4.612,3.759-2.18,7.379,4.151,0-13.18,4.222-2.768,4.261,2.768,0,13.18,7.646-4.235,3.845,2.544,0,4.151-11.322,6.414,0,8.68,7.744-4.724,0,9.448,7.979-4.348,0-13.598,3.844-1.789,4.038,1.789,0,8.694,11.879-6.416,4.153,2.53,0,4.919-11.601,6.597,7.254,4.066,0,4.697-3.76,2.083-11.138-6.583-7.702,4.892,7.449,4.642-7.673,4.416,7.926,4.15,11.138-6.221,3.578,2.53,0,4.487-6.988,3.927,11.126,6.61,0,5.188-4.71,2.152-10.931-6.221,0,8.232-3.927,2.194-3.843-2.194,0-12.496-8.092-4.611,0,8.68-7.744-4.725,0,8.68,10.944,6.22,0,4.92-3.776,1.886-7.337-4.15,0,13.207-4.26,2.738z" />
<path id="fog" d="M51.312,21.875c-5.183,0-9.974,1.68-13.874,4.5h27.687c-3.879-2.82-8.642-4.5-13.813-4.5zm-18.312,8.625c-1.135,1.375-2.102,2.891-2.906,4.5h42.312c-0.806-1.614-1.771-3.121-2.906-4.5h-36.5zm-4.5,8.625c-0.41,1.451-0.686,2.95-0.812,4.5h63.718c-2.932-1.897-6.403-3-10.156-3-2.34,0-4.568,0.47-6.625,1.25-0.15-0.948-0.368-1.843-0.625-2.75h-45.5zm-7.438,8.625c-2.041,1.037-3.774,2.58-5,4.5h82.532c-0.668-1.626-1.551-3.141-2.625-4.5h-74.907zm-6.718,8.625c-0.192,0.879-0.282,1.814-0.282,2.75,0,0.087,0.032,0.163,0.032,0.25-1.008-0.302-2.054-0.531-3.156-0.531-2.3633,0-4.5566,0.758-6.3442,2.031h95.344c0.039-0.499,0.062-0.991,0.062-1.5,0-1.025-0.092-2.02-0.25-3h-85.406zm-13.25,8.625c-0.66557,1.366-1.0531,2.889-1.0938,4.5h97.031c0.893-1.385,1.589-2.896,2.094-4.5h-98.031zm-0.25005,8.625c1.6598,3.194,5.5614,4.5,10.094,4.5h70.312c4.652,0,8.91-1.698,12.188-4.5h-92.594z" />
<path id="hazy" d="m51.312,5.9375c-5.183,0-9.975,1.68-13.875,4.5h27.688c-3.879-2.82-8.6415-4.5-13.812-4.5zm-18.312,8.6245c-1.135,1.375-2.1022,2.891-2.9062,4.5h42.312c-0.806-1.614-1.7712-3.121-2.9062-4.5h-36.5zm-4.5,8.625c-0.41,1.451-0.6865,2.95-0.8125,4.5h12.469v4.125h-19.094c-2.041,1.037-3.774,2.58-5,4.5h24.094v4.125h-25.812c-0.192,0.879-0.28125,1.814-0.28125,2.75,0,0.087,0.03125,0.163,0.03125,0.25-1.008-0.302-2.0542-0.53125-3.1562-0.53125-2.3633,0-4.5562,0.75825-6.3438,2.0312h35.562v4.125h-6.25v-3.6875h-20.406v3.6875h-12.406c-0.66682,1.366-1.0543,2.89-1.095,4.5h13.5v4.125h-12.656c1.6598,3.194,5.5611,4.5,10.094,4.5h2.5625v21.281h-13.5v10.594h100v-10.594h-12.75v-22.312c2.2843-0.7748,4.3939-1.9356,6.1875-3.4688h-6.1875v-4.125h9.7812c0.893-1.385,1.5888-2.896,2.0938-4.5h-35.406v-4.125h36.219c0.039-0.499,0.0625-0.991,0.0625-1.5,0-1.025-0.092-2.02-0.25-3h-36.031v-4.125h34.875c-0.668-1.626-1.551-3.141-2.625-4.5h-32.25v-4.125h27.688c-2.932-1.897-6.4032-3-10.156-3-2.34,0-4.568,0.47-6.625,1.25-0.15-0.948-0.368-1.843-0.625-2.75h-45.5zm14.094,6.3438,7.4375,0,0,2.2812-7.4375,0,0-2.2812zm11.25,0,7.4375,0,0,2.2812-7.4375,0,0-2.2812zm-11.25,8.125,7.4375,0,0,2.7812-7.4375,0,0-2.7812zm11.25,0,7.4375,0,0,2.7812-7.4375,0,0-2.7812zm-37.375,15.906,4.5625,0,0,2.3125-4.5625,0,0-2.3125zm9.875,0,4.5625,0,0,2.3125-4.5625,0,0-2.3125zm7.5625,0,6.25,0,0,4.125-6.25,0,0-4.125zm29.812,0,9.4062,0,0,4.125-9.4062,0,0-4.125zm-29.812,8.625,6.25,0,0,21.281-6.25,0,0-21.281zm29.812,0,9.4062,0,0,21.281-9.4062,0,0-21.281z" />
<path id="mostlycloudy" d="M33.469,15v11.938h3.125v-11.938h-3.125zm-13.813,3.406l-2.656,1.656,6.312,10.126,2.657-1.657-6.313-10.125zm30.938,0.313l-4.719,8.531c-2.986,0.663-5.776,1.865-8.25,3.5-0.847-0.119-1.715-0.188-2.594-0.188-10.675,0-19.312,8.695-19.312,19.407,0,1.947,0.305,3.825,0.843,5.593-0.978,1.235-1.775,2.642-2.312,4.157l-0.688-1.063-10.062,6.344,0.3438,0.562c-2.3766,2.331-3.8438,5.561-3.8438,9.126,0,3.52,1.6295,6.439,4.0938,8.093,2.4642,1.654,5.5401,2.219,8.7182,2.219h20.469,3.125,9.125,17.844,16.375c11.15,0,20.25-9.098,20.25-20.25s-9.099-20.219-20.25-20.219c-1.607,0-3.124,0.264-4.594,0.625-2.866-10.607-12.411-18.5-23.906-18.5-0.499,0-0.977,0.034-1.469,0.063l3.563-6.469-2.75-1.531zm-44.532,11.375l-1.5313,2.75,10.407,5.781,1.5-2.75-10.376-5.781zm45.188,1.344c10.088,0,18.319,7.377,19.844,17.031l0.468,2.906,2.75-1.031c1.734-0.658,3.538-1.063,5.438-1.063,8.58,0,15.5,6.89,15.5,15.469s-6.921,15.5-15.5,15.5h-16.375-17.844-32.719c-2.576,0-4.757-0.53-6.062-1.406s-2-1.922-2-4.156c0-4.463,3.5946-8.032,8.062-8.032,0.74,0,1.486,0.128,2.313,0.375l3.063,0.938v-3.219c0-0.288,0.007-0.458,0-0.5,0.133-5.302,4.412-9.5,9.75-9.5-0.078,0,0.118,0.026,0.656,0.062l2.656,0.188-0.125-2.656c-0.029-0.651-0.063-0.871-0.063-0.719,0-11.178,9.002-20.187,20.188-20.187zm-51.25,16.062v3.125h11.906v-3.125h-11.906z" />
<path id="mostlysunny" d="M43.031,0v15.344h4v-15.344h-4zm-17.75,4.375l-3.406,2.1562,8.125,13,3.406-2.125-8.125-13.031zm39.781,0.4062l-7.437,13.407,3.531,1.968,7.406-13.406-3.5-1.9688zm-57.281,14.625l-1.9687,3.532,13.376,7.437,1.968-3.531-13.375-7.438zm37.281,0.594c-13.724,0-24.874,11.166-24.874,24.938,0,13.77,11.15,24.94,24.874,24.937,13.716,0,24.813-11.165,24.813-24.937s-11.099-24.938-24.813-24.938zm37.563,0.5l-13.25,7.656,2.031,3.5,13.25-7.656-2.031-3.5zm-82.625,21.281v4.031h15.312v-4.031h-15.312zm74.688,0.25v4.031h15.312v-4.031h-15.312zm-57.219,14.094l-12.969,8.156,2.0938,3.407,13-8.126-2.125-3.437zm54.437,0.875l-1.968,3.531,13.406,7.438,1.937-3.531-13.375-7.438zm-10.187,12.25l-3.469,2,7.656,13.312,3.469-2-7.656-13.312zm-33.438,0.094l-7.406,13.437,3.5,1.969,7.437-13.438-3.531-1.968zm14.5,5.312v15.344h4.031v-15.344h-4.031zm37.719,2c-5.303,0-9.565,4.213-9.875,9.438-2.591,0.249-4.6,2.193-5.063,4.718-0.152-0.016-0.276-0.062-0.437-0.062-2.817,0-5.125,2.31-5.125,5.125,0,1.408,0.671,2.588,1.656,3.25,0.986,0.662,2.198,0.875,3.469,0.875h13.094,7.125,6.562c4.46,0,8.094-3.633,8.094-8.094s-3.633-8.094-8.094-8.094c-0.677,0-1.29,0.185-1.906,0.344-1.127-4.272-4.881-7.5-9.5-7.5zm0,1.906c4.035,0,7.328,2.983,7.938,6.844l0.187,1.156,1.094-0.437c0.693-0.263,1.427-0.406,2.187-0.406,3.432,0,6.188,2.756,6.188,6.187,0,3.432-2.756,6.188-6.188,6.188h-6.562-7.125-13.094c-1.031,0-1.884-0.212-2.406-0.563-0.522-0.35-0.813-0.762-0.813-1.656,0-1.785,1.432-3.219,3.219-3.219,0.296,0,0.576,0.057,0.906,0.156l1.25,0.376v-1.282c0-0.059-0.028-0.061-0.031-0.094,0-0.054-0.005-0.05,0-0.062-0.001-0.005,0.001-0.029,0-0.031,0.05-2.124,1.77-3.813,3.906-3.813-0.031,0,0.066,0.017,0.282,0.032l1.062,0.062-0.031-1.062c-0.012-0.261-0.063-0.343-0.063-0.282,0-4.471,3.62-8.094,8.094-8.094z" />
<path id="nsurtsra" d="M50,0c-20.898,0-40.913,4.784-46.875,9.375,2.805,6.747,33.855,9.375,46.875,9.375s43.548-3.544,46.875-9.375c-3.864-5.116-23.854-9.375-46.875-9.375zm-46.844,12.5c-0.049,0.195-1.661,18.125,28.125,28.125,20.639,6.924,9.375,18.75,9.375,18.75s-22.412,21.25-3.156,28.125c12.062,4.292,10.92,10.118,9.375,12.5,11.7-14.721-21.6-17.334,15.656-34.375,19.116-8.754,21.485-13.846,15.594-21.875-7.717-10.55,17.12-14.778,18.75-31.25-7.369,5.788-26.346,9.033-46.875,9.375-23.121-0.378-41.557-1.987-46.844-9.375z" />
<path id="partlycloudy" d="M33.469,15v11.938h3.125v-11.938h-3.125zm-13.813,3.406l-2.656,1.656,6.312,10.126,2.657-1.657-6.313-10.125zm30.938,0.313l-5.782,10.437,2.75,1.532,5.782-10.438-2.75-1.531zm-44.532,11.375l-1.5313,2.75,10.407,5.781,1.5-2.75-10.376-5.781zm28.968,0.468c-10.675,0-19.312,8.695-19.312,19.407,0,9.054,6.173,16.619,14.531,18.75-3.104,1.593-5.25,4.819-5.25,8.531,0,2.64,1.214,4.853,3.062,6.094,1.508,1.012,3.31,1.457,5.219,1.594v0.062h1.313,1.812,22.75,13.375,12.281c8.363,0,15.188-6.823,15.188-15.188,0-8.364-6.824-15.156-15.188-15.156-1.204,0-2.335,0.198-3.437,0.469-2.148-7.959-9.313-13.875-17.937-13.875-3.692,0-7.108,1.081-10,2.938-2.449-7.888-9.748-13.626-18.407-13.626zm29.219,0.376l-10.281,5.968,1.562,2.719,10.313-5.969-1.594-2.718zm-0.812,13.874c7.565,0,13.762,5.572,14.906,12.813l0.312,2.156,2.063-0.781c1.3-0.493,2.668-0.781,4.093-0.781,6.436,0,11.626,5.159,11.626,11.593,0,6.435-5.191,11.626-11.626,11.626h-12.281-13.375-24.562c-1.933,0-3.553-0.406-4.532-1.063-0.978-0.657-1.5-1.449-1.5-3.125,0-3.347,2.681-6.031,6.032-6.031,0.554,0,1.13,0.126,1.75,0.312l2.281,0.688v-2.407-0.187c0-4.067,3.246-7.313,7.313-7.313-0.059,0,0.097,0.036,0.5,0.063l2,0.125-0.094-2c-0.022-0.488-0.063-0.646-0.063-0.531,0-8.384,6.767-15.157,15.157-15.157zm-63.438,2.688v3.125h11.906v-3.125h-11.906zm13.562,11.156l-10.062,6.344,1.625,2.656,10.094-6.344-1.657-2.656zm8.438,10.282l-5.75,10.468,2.719,1.5,5.781-10.437-2.75-1.531z" />
<path id="partlysunny" d="M33.469,15v11.938h3.125v-11.938h-3.125zm-13.813,3.406l-2.656,1.656,6.312,10.126,2.657-1.657-6.313-10.125zm30.938,0.313l-5.782,10.437,2.75,1.532,5.782-10.438-2.75-1.531zm-44.532,11.375l-1.5313,2.75,10.407,5.781,1.5-2.75-10.376-5.781zm28.968,0.468c-10.675,0-19.312,8.695-19.312,19.407,0,9.054,6.173,16.619,14.531,18.75-3.104,1.593-5.25,4.819-5.25,8.531,0,2.64,1.214,4.853,3.062,6.094,1.508,1.012,3.31,1.457,5.219,1.594v0.062h1.313,1.812,22.75,13.375,12.281c8.363,0,15.188-6.823,15.188-15.188,0-8.364-6.824-15.156-15.188-15.156-1.204,0-2.335,0.198-3.437,0.469-2.148-7.959-9.313-13.875-17.937-13.875-3.692,0-7.108,1.081-10,2.938-2.449-7.888-9.748-13.626-18.407-13.626zm29.219,0.376l-10.281,5.968,1.562,2.719,10.313-5.969-1.594-2.718zm-0.812,13.874c7.565,0,13.762,5.572,14.906,12.813l0.312,2.156,2.063-0.781c1.3-0.493,2.668-0.781,4.093-0.781,6.436,0,11.626,5.159,11.626,11.593,0,6.435-5.191,11.626-11.626,11.626h-12.281-13.375-24.562c-1.933,0-3.553-0.406-4.532-1.063-0.978-0.657-1.5-1.449-1.5-3.125,0-3.347,2.681-6.031,6.032-6.031,0.554,0,1.13,0.126,1.75,0.312l2.281,0.688v-2.407-0.187c0-4.067,3.246-7.313,7.313-7.313-0.059,0,0.097,0.036,0.5,0.063l2,0.125-0.094-2c-0.022-0.488-0.063-0.646-0.063-0.531,0-8.384,6.767-15.157,15.157-15.157zm-63.438,2.688v3.125h11.906v-3.125h-11.906zm13.562,11.156l-10.062,6.344,1.625,2.656,10.094-6.344-1.657-2.656zm8.438,10.282l-5.75,10.468,2.719,1.5,5.781-10.437-2.75-1.531z" />
<path id="rain" d="M51.188,6.8125c-12.627,0-22.762,10.028-23.5,22.468-6.17,0.593-10.961,5.238-12.063,11.25-0.362-0.038-0.648-0.156-1.031-0.156-6.7074,0-12.219,5.485-12.219,12.187,0,3.353,1.5923,6.174,3.9375,7.75,2.3476,1.577,5.2555,2.094,8.2815,2.094h31.156,16.969,15.625c10.619,0,19.281-8.66,19.281-19.281s-8.66-19.281-19.281-19.281c-1.612,0-3.065,0.434-4.532,0.812-2.683-10.171-11.627-17.844-22.624-17.844zm0,4.5315c9.607,0,17.453,7.119,18.906,16.312l0.437,2.75,2.625-1.062c1.65-0.626,3.378-0.938,5.188-0.938,8.171,0,14.75,6.55,14.75,14.719,0,8.171-6.579,14.719-14.75,14.719h-15.625-16.969-31.156c-2.455,0-4.507-0.508-5.7502-1.344-1.2429-0.833-1.9376-1.809-1.9376-3.938,0-4.249,3.4328-7.656,7.6878-7.656,0.705,0,1.37,0.14,2.156,0.375l2.969,0.907v-3.063c0-0.14-0.056-0.14-0.063-0.219,0-0.128-0.012-0.127,0-0.156-0.002-0.012,0.002-0.058,0-0.062,0.119-5.058,4.196-9.094,9.282-9.094-0.074,0,0.173,0.058,0.687,0.094l2.531,0.124-0.094-2.531c-0.028-0.621-0.156-0.801-0.156-0.656,0-10.645,8.629-19.281,19.282-19.281zm-27.719,57.125l-9.031,24.781,1.937,0.719,9.313-25.5h-2.219zm17.219,0l-9.032,24.781,1.938,0.719,9.281-25.5h-2.187zm17.218,0l-9.031,24.781,1.937,0.719,9.282-25.5h-2.188zm17.188,0l-9,24.781,1.937,0.719,9.281-25.5h-2.218z" />
<path id="raip" d="M30.219,2c-7.202,0-13.031,5.8326-13.031,13.031,0,0.163,0.024,0.306,0.031,0.469-0.163-0.011-0.306-0.031-0.469-0.031-3.875,0-7,3.125-7,7v0.156c-0.5544-0.166-1.112-0.281-1.7188-0.281-3.3236,0-6.0312,2.679-6.0312,6,0,3.323,2.7076,4.594,6.0312,4.594h38.657c5.696,0,10.312-4.615,10.312-10.313,0-5.697-4.616-10.313-10.312-10.313-1.288,0-2.525,0.259-3.657,0.688-0.983-6.2265-6.313-11-12.812-11zm63.719,1.9375l-90,90,2.125,2.124,90-90-2.124-2.125zm-79.032,32.406l-4.9685,13.625,1.0625,0.406,5.125-14.031h-1.219zm5.688,0l-4.969,13.625,1.063,0.406,5.124-14.031h-1.218zm5.687,0l-4.969,13.625,1.063,0.406,5.094-14.031h-1.188zm5.657,0l-4.938,13.625,1.062,0.406,5.094-14.031h-1.218zm5.687,0l-4.969,13.625,1.063,0.406,5.125-14.031h-1.219zm5.687,0l-4.968,13.625,1.062,0.406,5.094-14.031h-1.188zm27.907,11.812c-7.202,0-13.031,5.833-13.031,13.032,0,0.162,0.024,0.305,0.031,0.468-0.163-0.011-0.306-0.062-0.469-0.062-3.875,0-7,3.156-7,7.031v0.156c-0.554-0.166-1.112-0.312-1.719-0.312-3.323,0-6.031,2.711-6.031,6.031,0,3.324,2.708,4.594,6.031,4.594h38.657c5.696,0,10.312-4.616,10.312-10.313s-4.615-10.312-10.312-10.312c-1.288,0-2.525,0.258-3.657,0.687-0.983-6.226-6.313-11-12.812-11zm-5.25,32.782c-0.535,0.026-1.024,0.34-1.219,0.874-0.26,0.714,0.099,1.521,0.812,1.782,0.714,0.26,1.521-0.1,1.782-0.813,0.26-0.713-0.131-1.521-0.844-1.781-0.178-0.065-0.353-0.071-0.531-0.062zm18.937,0c-0.535,0.026-1.023,0.34-1.218,0.874-0.261,0.714,0.099,1.521,0.812,1.782,0.713,0.26,1.521-0.1,1.781-0.813,0.261-0.713-0.13-1.521-0.843-1.781-0.179-0.065-0.353-0.071-0.532-0.062zm-28.656,0.531c-0.428,0.021-0.844,0.291-1,0.719-0.208,0.57,0.086,1.197,0.656,1.406,0.571,0.208,1.198-0.086,1.406-0.656,0.209-0.571-0.054-1.198-0.624-1.407-0.143-0.052-0.295-0.069-0.438-0.062zm18.938,0c-0.429,0.021-0.844,0.291-1,0.719-0.209,0.57,0.085,1.197,0.656,1.406,0.57,0.208,1.198-0.086,1.406-0.656,0.208-0.571-0.086-1.198-0.656-1.407-0.143-0.052-0.264-0.069-0.406-0.062zm-10.532,3.031c-0.535,0.027-1.023,0.371-1.218,0.906-0.261,0.713,0.099,1.49,0.812,1.75,0.713,0.261,1.521-0.099,1.781-0.812,0.261-0.713-0.13-1.49-0.843-1.75-0.179-0.065-0.353-0.103-0.532-0.094zm18.938,0c-0.535,0.027-1.024,0.371-1.219,0.906-0.26,0.713,0.099,1.49,0.813,1.75,0.713,0.261,1.52-0.099,1.781-0.812,0.26-0.713-0.131-1.49-0.844-1.75-0.178-0.065-0.353-0.103-0.531-0.094zm-28.656,0.562c-0.429,0.022-0.813,0.291-0.969,0.719-0.209,0.571,0.086,1.198,0.656,1.407,0.571,0.208,1.198-0.086,1.406-0.657,0.209-0.57-0.086-1.198-0.656-1.406-0.143-0.052-0.295-0.07-0.437-0.063zm18.937,0c-0.428,0.022-0.844,0.291-1,0.719-0.208,0.571,0.086,1.198,0.656,1.407,0.571,0.208,1.229-0.086,1.438-0.657,0.208-0.57-0.086-1.198-0.657-1.406-0.142-0.052-0.294-0.07-0.437-0.063zm-10.531,3.032c-0.535,0.027-1.024,0.371-1.219,0.906-0.26,0.713,0.099,1.49,0.813,1.75,0.713,0.26,1.52-0.099,1.781-0.812,0.26-0.714-0.1-1.521-0.813-1.782-0.178-0.065-0.384-0.071-0.562-0.062zm18.937,0c-0.535,0.027-1.023,0.371-1.219,0.906-0.26,0.713,0.1,1.49,0.813,1.75s1.521-0.099,1.781-0.812c0.261-0.714-0.099-1.521-0.812-1.782-0.179-0.065-0.384-0.071-0.563-0.062zm-28.656,0.531c-0.428,0.021-0.812,0.291-0.969,0.719-0.208,0.57,0.086,1.229,0.656,1.437,0.571,0.209,1.198-0.086,1.407-0.656,0.208-0.571-0.086-1.229-0.657-1.437-0.142-0.053-0.294-0.07-0.437-0.063zm18.937,0c-0.428,0.021-0.812,0.291-0.968,0.719-0.209,0.57,0.086,1.229,0.656,1.437,0.571,0.209,1.198-0.085,1.406-0.656,0.209-0.571-0.086-1.229-0.656-1.437-0.143-0.053-0.295-0.07-0.438-0.063zm-10.531,3.031c-0.535,0.027-1.023,0.372-1.219,0.906-0.26,0.714,0.131,1.521,0.844,1.782,0.713,0.26,1.49-0.131,1.75-0.844,0.261-0.713-0.099-1.49-0.812-1.75-0.179-0.065-0.384-0.103-0.563-0.094zm18.938,0c-0.535,0.027-1.024,0.372-1.219,0.906-0.26,0.714,0.131,1.521,0.844,1.782,0.713,0.26,1.489-0.131,1.75-0.844,0.26-0.713-0.1-1.49-0.813-1.75-0.178-0.065-0.384-0.103-0.562-0.094zm-28.657,0.563c-0.428,0.021-0.812,0.291-0.968,0.719-0.209,0.57,0.086,1.197,0.656,1.406,0.571,0.208,1.198-0.086,1.406-0.656,0.209-0.571-0.086-1.198-0.656-1.407-0.143-0.052-0.295-0.069-0.438-0.062zm18.938,0c-0.428,0.021-0.812,0.291-0.969,0.719-0.208,0.57,0.086,1.197,0.657,1.406,0.57,0.208,1.197-0.086,1.406-0.656,0.208-0.571-0.086-1.198-0.656-1.407-0.143-0.052-0.295-0.069-0.438-0.062zm-13.656,1.219c-0.76,0-1.375,0.615-1.375,1.374,0,0.76,0.615,1.376,1.375,1.376,0.759,0,1.375-0.616,1.375-1.376,0-0.759-0.616-1.374-1.375-1.374zm18.937,0c-0.759,0-1.375,0.615-1.375,1.374,0,0.76,0.616,1.376,1.375,1.376,0.76,0,1.375-0.616,1.375-1.376,0-0.759-0.615-1.374-1.375-1.374zm-28.687,0.562c-0.608,0-1.094,0.486-1.094,1.094,0,0.607,0.486,1.094,1.094,1.094,0.607,0,1.094-0.487,1.094-1.094,0-0.608-0.487-1.094-1.094-1.094zm18.937,0c-0.607,0-1.093,0.486-1.093,1.094,0,0.607,0.486,1.094,1.093,1.094,0.608,0,1.094-0.487,1.094-1.094,0-0.608-0.486-1.094-1.094-1.094zm-6.031,1.25c-0.535,0.027-1.055,0.371-1.25,0.906-0.26,0.713,0.131,1.49,0.844,1.75,0.713,0.261,1.489-0.099,1.75-0.812,0.26-0.713-0.1-1.49-0.813-1.75-0.178-0.065-0.353-0.103-0.531-0.094zm18.938,0c-0.536,0.027-1.055,0.371-1.25,0.906-0.261,0.713,0.13,1.49,0.843,1.75,0.713,0.261,1.49-0.099,1.75-0.812,0.261-0.713-0.099-1.49-0.812-1.75-0.179-0.065-0.353-0.103-0.531-0.094zm-28.688,0.562c-0.428,0.022-0.812,0.291-0.969,0.719-0.208,0.571,0.086,1.198,0.657,1.407,0.57,0.208,1.197-0.086,1.406-0.657,0.208-0.57-0.086-1.198-0.656-1.406-0.143-0.052-0.295-0.07-0.438-0.063zm18.938,0c-0.429,0.022-0.813,0.291-0.969,0.719-0.209,0.571,0.086,1.198,0.656,1.407,0.571,0.208,1.198-0.086,1.406-0.657,0.209-0.57-0.086-1.198-0.656-1.406-0.143-0.052-0.295-0.07-0.437-0.063z" />
<path id="sleet" d="M25.5,2l-2.25,1.4688v7.0312l-3.938-2.1875-2,1.1563v2.4692l5.844,3.312v4.625l-4.344-2.313v4.782l-4.124-2.375v-6.781l-2.25-1.313-1.876,1.25v4.531l-6.1558-3.531-2.4062,1.219v2.812l6.25,3.406-3.9062,2.188v2.562l2.1562,1.094,5.781-3.406,4.031,2.312-4,2.5,4.126,2.344,0.093,0.094-4.031,2.312-5.7812-3.406-2.3126,1.25v2.563l4.0626,2.031-6.4688,3.531v2.813l2.625,1.094,6.156-3.469v4.469l1.875,1.25,2.219-1.376v-6.656l4.031-2.344v4.907l4.25-2.719v4.625l-5.844,3.344v2.469l2,1.156,3.938-2.219v7.063l2.25,1.437,2.281-1.437v-7.063l3.938,2.219,2-1v-2.625l-5.844-3.344v-4.625l4.125,2.531v-4.625l4.344,2.438v6.687l2.031,1.157,2.094-1.157v-4.406l5.843,3.313,2.532-1.126v-2.781l-5.938-3.531,3.719-2.094v-2.406l-1.906-1.344-5.969,3.313-4.219-2.188,4.094-2.375-3.969-2.468,4.094-2.626,5.969,3.532,2-1.125v-2.5l-3.875-2.188,6.187-3.5v-2.625l-2.219-1.375-6.343,3.438v-4.657l-2.157-0.937-2.031,0.937v7.282l-4.281,2.312v-5.031l-4.125,2.5v-4.625l6.063-3.438v-2.187l-2.063-1.375-4.094,2.25v-7.0312l-2.281-1.4688zm68.438,1.9375l-90,90,2.125,2.124,90-90-2.124-2.125zm-70.282,21.594h3.938l1.906,3.313-1.812,3.125h-3.938l-2.125-3.125,2.031-3.313zm44.438,16.438c-8.046,0-14.563,6.521-14.563,14.562,0,0.182,0.024,0.35,0.031,0.531-0.181-0.012-0.349-0.062-0.531-0.062-4.328,0-7.843,3.515-7.843,7.844,0,0.053,0.031,0.103,0.031,0.156-0.62-0.186-1.26-0.312-1.938-0.312-3.713,0-6.719,3.009-6.719,6.718,0,3.713,3.006,5.125,6.719,5.125h43.188c6.364-0.002,11.531-5.166,11.531-11.531,0-6.364-5.167-11.5-11.531-11.5-1.438,0-2.799,0.271-4.063,0.75-1.098-6.956-7.051-12.281-14.312-12.281zm-17.094,38.343l-5.562,15.25,1.187,0.438,5.719-15.688h-1.344zm6.344,0l-5.563,15.25,1.188,0.438,5.719-15.688h-1.344zm6.344,0l-5.563,15.25,1.187,0.438,5.719-15.688h-1.343zm6.343,0l-5.562,15.25,1.187,0.438,5.719-15.688h-1.344zm6.344,0l-5.563,15.25,1.188,0.438,5.719-15.688h-1.344zm6.344,0l-5.563,15.25,1.188,0.438,5.718-15.688h-1.343z" />
<path id="snow" d="m42.732,50.287,3.955,5.841,7.365,0,3.398-5.841-3.58-6.22-7.379,0zm3.033,46.974,0-13.207-7.379,4.15-3.759-2.152,0-4.653,10.943-6.22,0-8.68-7.939,5.102,0-9.196-7.589,4.374,0,12.468-4.151,2.572-3.508-2.321,0-8.356-11.518,6.498-4.919-2.07,0-5.27,12.089-6.609-7.561-3.801,0-4.822,4.291-2.349,10.845,6.386,7.533-4.346-0.182-0.139-7.701-4.417,7.477-4.64-7.505-4.346-10.844,6.372-4.068-2.026,0-4.808,7.339-4.123-11.713-6.36,0-5.269,4.5-2.319,11.544,6.666,0-8.497,3.48-2.348,4.264,2.46-0.028,12.718,7.756,4.43-0.027-8.986,8.134,4.375,0-8.68-10.943-6.233,0-4.612,3.759-2.18,7.379,4.151,0-13.18,4.222-2.768,4.261,2.768,0,13.18,7.646-4.235,3.845,2.544,0,4.151-11.322,6.414,0,8.68,7.744-4.724,0,9.448,7.979-4.348,0-13.598,3.844-1.789,4.038,1.789,0,8.694,11.879-6.416,4.153,2.53,0,4.919-11.601,6.597,7.254,4.066,0,4.697-3.76,2.083-11.138-6.583-7.702,4.892,7.449,4.642-7.673,4.416,7.926,4.15,11.138-6.221,3.578,2.53,0,4.487-6.988,3.927,11.126,6.61,0,5.188-4.71,2.152-10.931-6.221,0,8.232-3.927,2.194-3.843-2.194,0-12.496-8.092-4.611,0,8.68-7.744-4.725,0,8.68,10.944,6.22,0,4.92-3.776,1.886-7.337-4.15,0,13.207-4.26,2.738z" />
<path id="sunny" d="M47.812,0v17.062h4.469v-17.062h-4.469zm-19.718,4.875l-3.782,2.375,9,14.438,3.782-2.344-9-14.469zm44.187,0.4375l-8.25,14.906,3.938,2.187,8.219-14.906-3.907-2.1875zm-63.625,16.25l-2.1874,3.938,14.843,8.25,2.188-3.906-14.844-8.282zm41.406,0.657c-15.25,0-27.624,12.417-27.624,27.719,0,15.3,12.374,27.721,27.624,27.718,15.24,0,27.594-12.416,27.594-27.718s-12.356-27.719-27.594-27.719zm41.75,0.531l-14.718,8.531,2.218,3.907,14.719-8.532-2.219-3.906zm-91.812,23.688v4.468h17v-4.468h-17zm83,0.25v4.5h17v-4.5h-17zm-63.594,15.687l-14.406,9.031,2.3438,3.813,14.406-9.063-2.344-3.781zm60.5,0.969l-2.187,3.906,14.875,8.281,2.187-3.937-14.875-8.25zm-11.312,13.625l-3.875,2.219,8.5,14.781,3.875-2.25-8.5-14.75zm-37.156,0.093l-8.25,14.938,3.906,2.156,8.25-14.937-3.906-2.157zm16.093,5.876v17.062h4.469v-17.062h-4.469z" />
<path id="tstorms" d="M51.312,3.5625c-13.094,0-23.718,10.63-23.718,23.718,0,0.296,0.08,0.548,0.094,0.844-0.296-0.02-0.58-0.063-0.876-0.063-7.044,0-12.75,5.706-12.75,12.75,0,0.088,0.032,0.164,0.032,0.25-1.008-0.302-2.054-0.5-3.156-0.5-6.0435,0-10.938,4.901-10.938,10.938,0,6.043,4.8945,8.312,10.938,8.312h70.312c10.358,0,18.75-8.39,18.75-18.75,0-10.358-8.391-18.75-18.75-18.75-2.34,0-4.568,0.502-6.625,1.282-1.788-11.321-11.495-20.032-23.313-20.032zm-4.593,58.656l-11.969,20.531h8.562l-6.843,13.688,20.531-20.532h-10.281l8.562-13.687h-8.562zm-23.25,3.781l-9.031,24.812,1.937,0.719,9.313-25.531h-2.219zm10.343,0l-9.031,24.812,1.938,0.719,9.281-25.531h-2.188zm30.969,0l-9.031,24.812,1.938,0.719,9.281-25.531h-2.188zm10.313,0l-9,24.812,1.937,0.719,9.281-25.531h-2.218z" />
<path id="wind" d="M62.781,0.0062768c-1.621,0.18889-7.737,6.4392-19.093,25.311,3.0187,0.032,5.663,1.6919,7.0938,4.1247,11.41-20.557,13.346-28.772,12.25-29.404-0.0685-0.039435-0.14194-0.043841-0.25-0.031248zm-19.187,29.467c-2.2942,0-4.1562,1.8647-4.1562,4.156s1.862,4.156,4.1562,4.156,4.1562-1.8647,4.1562-4.156-1.862-4.156-4.1562-4.156zm-7.2188,0.0625c-23.477,0.41497-31.531,2.8316-31.531,4.0935,0,1.2609,8.0532,3.6795,31.531,4.0935-0.68785-1.2069-1.0938-2.6066-1.0938-4.0935,0-1.4859,0.40594-2.8856,1.0938-4.0935zm14.406,8.2495c-1.4238,2.4358-4.0448,4.0887-7.0625,4.1247,12.105,20.107,18.216,25.878,19.312,25.248,1.0943-0.63196-0.84705-8.8283-12.25-29.373zm-50.468,2.062c-0.063218-0.0073-0.11601,0.0082-0.15625,0.03125-0.6438,0.373,0.50625,5.156,7.0312,16.999,0.9162-1.38,2.4383-2.304,4.1875-2.438-6.5661-10.832-10.114-14.483-11.062-14.592zm65.062,0c-0.06321-0.0073-0.11601,0.0082-0.15625,0.03125-0.643,0.37298,0.50625,5.1567,7.0312,16.999,0.9172-1.3799,2.4393-2.3034,4.1875-2.4373-6.566-10.833-10.113-14.484-11.061-14.593zm-25.938,3.0311,0,57.121,8.3125,0,0-43.935c-2.379-3.518-5.134-7.856-8.31-13.186zm-27.655,14.28c-1.5295,0-2.75,1.2223-2.75,2.7498s1.2205,2.7811,2.75,2.7811,2.7812-1.2536,2.7812-2.7811-1.2518-2.7498-2.7812-2.7498zm65.094,0c-1.5295,0-2.7812,1.2223-2.7812,2.7498s1.2518,2.7811,2.7812,2.7811c1.5295,0,2.7812-1.2536,2.7812-2.7811s-1.2518-2.7498-2.7812-2.7498zm-60.125,0.344c0.35844,0.73095,0.59375,1.5372,0.59375,2.4061,0,0.87594-0.2293,1.7014-0.59375,2.4373,13.471-0.28298,18.156-1.6671,18.156-2.4061,0-0.74195-4.6902-2.1544-18.156-2.4373zm65.094,0c0.35744,0.73095,0.5625,1.5372,0.5625,2.4061,0,0.87594-0.20306,1.7014-0.5625,2.4373,13.471-0.283,18.156-1.667,18.156-2.406,0-0.742-4.69-2.154-18.156-2.437zm-74.656,5.468c-6.523,11.842-7.675,16.627-7.0312,16.999,0.644,0.371,4.2152-3.01,11.219-14.562-1.7502-0.135-3.2694-1.056-4.1875-2.437zm65.062,0c-6.524,11.842-7.675,16.623-7.031,16.999,0.643,0.37,4.216-3.007,11.219-14.562-1.752-0.135-3.27-1.056-4.188-2.437zm-57.688,2.5311c-2.15,3.6138-3.9764,6.4613-5.5312,8.7182l-0.0308,25.78h5.5312l0.03125-34.498zm65.094,0c-2.1496,3.6137-4.0086,6.4613-5.5625,8.7182v25.78h5.5312l0.03125-34.498z" />
   
<path id="d" d="m47.812 0v17.062h4.469v-17.062h-4.469zm-19.718 4.875l-3.782 2.375 9 14.438 3.782-2.344-9-14.469zm44.187 0.4375l-8.25 14.906 3.938 2.187 8.219-14.906-3.907-2.1875zm-63.625 16.25l-2.1874 3.938 14.843 8.25 2.188-3.906-14.844-8.282zm41.406 0.657c-15.25 0-27.624 12.417-27.624 27.719 0 15.3 12.374 27.721 27.624 27.718 15.24 0 27.594-12.416 27.594-27.718s-12.356-27.719-27.594-27.719zm41.75 0.531l-14.718 8.531 2.218 3.907 14.719-8.532-2.219-3.906zm-91.812 23.688v4.468h17v-4.468h-17zm83 0.25v4.5h17v-4.5h-17zm-63.594 15.687l-14.406 9.031 2.3438 3.813 14.406-9.063-2.344-3.781zm60.5 0.969l-2.187 3.906 14.875 8.281 2.187-3.937-14.875-8.25zm-11.312 13.625l-3.875 2.219 8.5 14.781 3.875-2.25-8.5-14.75zm-37.156 0.093l-8.25 14.938 3.906 2.156 8.25-14.937-3.906-2.157zm16.093 5.876v17.062h4.469v-17.062h-4.469z"/>
<path id="c" d="m931.7 441.7h-722.6l217-217c22.8-22.8 22.8-59.7 0-82.5s-59.7-22.8-82.4 0l-316.6 316.6c-10.9 10.9-17.1 25.7-17.1 41.2s6.2 30.3 17.1 41.2l316.6 316.5c11.4 11.4 26.3 17.1 41.2 17.1s29.9-5.7 41.2-17.1c22.8-22.8 22.8-59.7 0-82.5l-217-217h722.6c32.2 0 58.3-26.1 58.3-58.3 0-32.1-26.1-58.2-58.3-58.2z"/>
</defs>
<path d="m22.309 13.634-8.0667 6.6505c0 0.0094-0.0024 0.02319-0.0071 0.04201-0.0046 0.01867-0.0071 0.03224-0.0071 0.04187v6.734c0 0.24314 0.08889 0.45385 0.26663 0.63129 0.17769 0.17754 0.3881 0.26687 0.63129 0.26687h5.3871v-5.3876h3.5919v5.3876h5.3871c0.24314 0 0.45385-0.08914 0.63129-0.26707 0.17774-0.17724 0.26692-0.3881 0.26692-0.63129v-6.734c0-0.03735-0.0051-0.06555-0.01415-0.08388z" stroke-width=".049139"/>
<path d="m33.462 18.769-3.0723-2.5534v-5.7242c0-0.13086-0.04206-0.23847-0.12648-0.3227-0.08373-0.08413-0.19135-0.12619-0.3225-0.12619h-2.6936c-0.131 0-0.23857 0.04206-0.32284 0.12619-0.08408 0.08422-0.12609 0.19189-0.12609 0.3227v2.7357l-3.4231-2.8621c-0.29896-0.24319-0.65443-0.36476-1.066-0.36476-0.41154 0-0.76696 0.12157-1.0662 0.36476l-10.087 8.4038c-0.09351 0.07469-0.14476 0.17523-0.1543 0.30152-0.0095 0.12619 0.02319 0.23641 0.09813 0.32987l0.86981 1.0382c0.07494 0.08413 0.17302 0.13558 0.29464 0.1544 0.11228 0.0094 0.22457-0.02339 0.33685-0.09818l9.7084-8.0952 9.7084 8.0952c0.07499 0.06526 0.17302 0.09784 0.29464 0.09784h0.04216c0.12142-0.01848 0.21931-0.07027 0.29464-0.1542l0.86991-1.0381c0.07479-0.09366 0.10756-0.20368 0.09783-0.33002-0.0096-0.12594-0.06103-0.22648-0.15434-0.30132z" stroke-width=".049139"/>
<text x="41.339863" y="25.060547" fill="#000000" font-family="'DejaVu Sans'" font-size="40px" letter-spacing="0px" word-spacing="0px" style="line-height:1.25" xml:space="preserve"><tspan x="41.339863" y="25.060547" font-family="'DejaVu Sans'" font-size="20px" text-decoration="underline" style="font-feature-settings:normal;font-variant-caps:normal;font-variant-ligatures:normal;font-variant-numeric:normal;text-decoration-line:underline">$ROOM1</tspan></text>
<text x="379.03711" y="25.060547" fill="#000000" font-family="'DejaVu Sans'" font-size="40px" letter-spacing="0px" word-spacing="0px" style="line-height:1.25" xml:space="preserve"><tspan x="379.03711" y="25.060547" font-family="'DejaVu Sans'" font-size="20px" text-decoration="underline" style="font-feature-settings:normal;font-variant-caps:normal;font-variant-ligatures:normal;font-variant-numeric:normal;text-decoration-line:underline">$ROOM2</tspan></text>
<path d="m373.7 33.997v80h1v-80z" stroke-width=".288"/>
<path d="m206.5 33.997v80h1v-80z" stroke-width=".288"/>
<text x="261.46484" y="97" font-family="'DejaVu Sans'" font-size="6.6667px" text-align="end" text-anchor="end" style="font-feature-settings:normal;font-variant-caps:normal;font-variant-ligatures:normal;font-variant-numeric:normal">
<tspan font-family="'DejaVu Sans'" font-size="8px" text-align="end" text-anchor="end" style="font-feature-settings:normal;font-variant-caps:normal;font-variant-ligatures:normal;font-variant-numeric:normal">MIN</tspan>
</text>
<text x="261.19623" y="110.64894" fill="#000000" font-family="'DejaVu Sans'" font-size="13.333px" letter-spacing="0px" text-align="end" text-anchor="end" word-spacing="0px" style="font-feature-settings:normal;font-variant-caps:normal;font-variant-ligatures:normal;font-variant-numeric:normal;line-height:1.25" xml:space="preserve"><tspan font-family="'DejaVu Sans'" font-size="16px" text-align="end" text-anchor="end" style="font-feature-settings:normal;font-variant-caps:normal;font-variant-ligatures:normal;font-variant-numeric:normal">$BBL</tspan></text>
<text x="260.07422" y="72.500504" font-family="'DejaVu Sans'" font-size="6.6667px" text-align="end" text-anchor="end" style="font-feature-settings:normal;font-variant-caps:normal;font-variant-ligatures:normal;font-variant-numeric:normal">
<tspan font-family="'DejaVu Sans'" font-size="8px" text-align="end" text-anchor="end" style="font-feature-settings:normal;font-variant-caps:normal;font-variant-ligatures:normal;font-variant-numeric:normal">MAX</tspan>
</text>
<text x="260.32812" y="86.648438" fill="#000000" font-family="'DejaVu Sans'" font-size="13.333px" letter-spacing="0px" text-align="end" text-anchor="end" word-spacing="0px" style="font-feature-settings:normal;font-variant-caps:normal;font-variant-ligatures:normal;font-variant-numeric:normal;line-height:1.25" xml:space="preserve"><tspan font-family="'DejaVu Sans'" font-size="16px" text-align="end" text-anchor="end" style="font-feature-settings:normal;font-variant-caps:normal;font-variant-ligatures:normal;font-variant-numeric:normal">$BBH</tspan></text>
<text x="265.03259" y="111.16196" font-family="'DejaVu Sans'" font-size="53.333px" style="font-feature-settings:normal;font-variant-caps:normal;font-variant-ligatures:normal;font-variant-numeric:normal">
<tspan font-family="'DejaVu Sans'" font-size="60px" style="font-feature-settings:normal;font-variant-caps:normal;font-variant-ligatures:normal;font-variant-numeric:normal">$BH</tspan>
</text>
<text x="299.99066" y="55.499149" font-family="'DejaVu Sans'" font-size="20px" text-align="center" text-anchor="middle" style="font-feature-settings:normal;font-variant-caps:normal;font-variant-ligatures:normal;font-variant-numeric:normal">in %</text>
<circle cx="264.02" cy="52.469" r=".53182" stroke-width=".033239"/>
<circle cx="260.82" cy="47.151" r=".53182" stroke-width=".033239"/>
<path d="m265.37 42.922c-0.87006-1.1094-1.7688-2.256-2.4942-3.4868-0.19146-0.32441-0.72541-0.32441-0.91581 0-0.72647 1.2306-1.6252 2.3773-2.4953 3.4868-1.7635 2.2496-3.4293 4.3749-3.4293 6.8881 0 3.5197 2.8623 6.3819 6.3819 6.3819s6.3819-2.8623 6.3819-6.3819c0-2.5134-1.6657-4.6385-3.4293-6.8881zm-4.5481 2.6336c0.87963 0 1.5955 0.71584 1.5955 1.5955s-0.71584 1.5955-1.5955 1.5955c-0.87964 0-1.5955-0.71584-1.5955-1.5955s0.71583-1.5955 1.5955-1.5955zm-0.68712 7.2903c-0.10424 0.10317-0.24038 0.15529-0.37653 0.15529s-0.27229-0.05212-0.37653-0.15529c-0.20741-0.20741-0.20741-0.54459 0-0.752l5.3182-5.3182c0.20741-0.20741 0.54459-0.20741 0.752 0s0.20847 0.54459 1e-3 0.752zm3.878 1.2189c-0.87963 0-1.5955-0.71584-1.5955-1.5955 0-0.87964 0.71584-1.5955 1.5955-1.5955 0.87964 0 1.5955 0.71584 1.5955 1.5955 0 0.87964-0.71584 1.5955-1.5955 1.5955z" stroke-width=".033239"/>
<path d="m498.84 48.393c-0.61986 0-1.1079 0.21973-1.4664 0.65455-0.3585 0.43714-0.53659 1.0362-0.53659 1.7994 0 0.73782 0.1804 1.3207 0.54353 1.7462 0.36081 0.42557 0.84883 0.63836 1.4618 0.63836 0.63142 0 1.1102-0.20816 1.4409-0.62448 0.33074-0.41632 0.49496-1.013 0.49496-1.7902 0-0.78176-0.16422-1.3808-0.49496-1.7994-0.33306-0.41401-0.81414-0.62448-1.4432-0.62448zm5.0468-3.6613s2.4378-0.64992 4.0036 0.92747c0.55278-0.4487 0.91128-1.168 0.91128-1.9752 0-1.3577-0.66149-2.5789-2.4609-2.1325-0.34462-1.279-1.4479-2.5511-2.8958-2.5511-1.2351 0-2.2158 0.63605-2.6945 1.7185 0.53196 0.25211 2.3823 1.3022 3.1363 4.0129zm-0.84421 1.0431c-0.74475-2.8217-3.1108-5.6273-6.2217-5.6273-3.6128 0-6.2101 2.6043-6.4599 6.7537-2.262 0-4.2257 1.73-4.2257 4.3344 0 2.6043 1.7277 4.7646 3.8579 4.7646h13.577c2.6344 0 4.7553-2.5095 4.7553-5.4746-2e-3 -2.9975-1.4201-5.736-5.2827-4.7507zm-8.1298 3.1178c-0.43946-0.33306-0.92054-0.49959-1.4548-0.49959-0.63142 0-1.1403 0.22666-1.5358 0.67537-0.39551 0.45102-0.59211 1.0501-0.59211 1.8017 0 0.73782 0.18735 1.316 0.56204 1.7347 0.37237 0.41864 0.87196 0.6268 1.508 0.6268 0.53659 0 1.0755-0.18041 1.515-0.54584v1.0454c-0.43945 0.29374-1.0454 0.44176-1.7185 0.44176-0.89971 0-1.6213-0.29836-2.1718-0.89278-0.54816-0.59673-0.82108-1.3669-0.82108-2.3152 0-1.0524 0.29605-1.8989 0.88815-2.5442 0.59211-0.64299 1.3739-0.96679 2.3661-0.96679 0.56897 0 1.0154 0.10408 1.4571 0.31224zm6.1384 4.3436c-0.56666 0.62217-1.3276 0.93441-2.2805 0.93441-0.9321 0-1.6745-0.30299-2.2296-0.90666s-0.83265-1.397-0.83265-2.3846c0-1.0593 0.2868-1.8966 0.8604-2.5095 0.5736-0.61292 1.353-0.92053 2.336-0.92053 0.93441 0 1.6676 0.29605 2.1996 0.88353 0.53197 0.58979 0.79564 1.4039 0.79564 2.4447 2e-3 1.02-0.28218 1.8364-0.84884 2.4586zm3.6151 0.4487v0.23592h-2.0446v-0.33074l0.99917-0.89972c0.25211-0.24748 0.46258-0.44408 0.54816-0.58979 0.0856-0.1434 0.14803-0.29374 0.14803-0.4487 0-0.17578-0.0393-0.30993-0.13878-0.40476-0.0994-0.09483-0.28911-0.14109-0.47877-0.14109-0.27986 0-0.61292 0.11796-0.84421 0.35156v-0.39782c0.23361-0.18734 0.58285-0.28217 0.9136-0.28217 0.28217 0 0.52965 0.07401 0.69387 0.22666 0.16422 0.15034 0.25673 0.35387 0.25673 0.60829 0 0.19197-0.0463 0.37932-0.15034 0.56435-0.10408 0.18503-0.28448 0.42095-0.57822 0.70543l-0.69618 0.68924v0.11102z" stroke-width=".023129"/>
<text x="590.41138" y="86.648438" fill="#000000" font-family="'DejaVu Sans'" font-size="13.333px" letter-spacing="0px" text-align="end" text-anchor="end" word-spacing="0px" style="font-feature-settings:normal;font-variant-caps:normal;font-variant-ligatures:normal;font-variant-numeric:normal;line-height:1.25" xml:space="preserve"><tspan font-family="'DejaVu Sans'" font-size="16px" text-align="end" text-anchor="end" style="font-feature-settings:normal;font-variant-caps:normal;font-variant-ligatures:normal;font-variant-numeric:normal">$QH</tspan></text>
<text x="588.57623" y="72.500626" font-family="'DejaVu Sans'" font-size="6.6667px" text-align="end" text-anchor="end" style="font-feature-settings:normal;font-variant-caps:normal;font-variant-ligatures:normal;font-variant-numeric:normal">
<tspan font-family="'DejaVu Sans'" font-size="8px" text-align="end" text-anchor="end" style="font-feature-settings:normal;font-variant-caps:normal;font-variant-ligatures:normal;font-variant-numeric:normal">MAX</tspan>
</text>
<text x="589.85938" y="110.64907" fill="#000000" font-family="'DejaVu Sans'" font-size="13.333px" letter-spacing="0px" text-align="end" text-anchor="end" word-spacing="0px" style="font-feature-settings:normal;font-variant-caps:normal;font-variant-ligatures:normal;font-variant-numeric:normal;line-height:1.25" xml:space="preserve"><tspan font-family="'DejaVu Sans'" font-size="16px" text-align="end" text-anchor="end" style="font-feature-settings:normal;font-variant-caps:normal;font-variant-ligatures:normal;font-variant-numeric:normal">$QL</tspan></text>
<text x="590.09747" y="97" font-family="'DejaVu Sans'" font-size="6.6667px" text-align="end" text-anchor="end" style="font-feature-settings:normal;font-variant-caps:normal;font-variant-ligatures:normal;font-variant-numeric:normal">
<tspan font-family="'DejaVu Sans'" font-size="8px" text-align="end" text-anchor="end" style="font-feature-settings:normal;font-variant-caps:normal;font-variant-ligatures:normal;font-variant-numeric:normal">MIN</tspan>
</text>
<text x="550.17108" y="111.16209" font-family="'DejaVu Sans'" font-size="53.333px" text-align="end" text-anchor="end" style="font-feature-settings:normal;font-variant-caps:normal;font-variant-ligatures:normal;font-variant-numeric:normal">
<tspan font-family="'DejaVu Sans'" font-size="60px" text-align="end" text-anchor="end" style="font-feature-settings:normal;font-variant-caps:normal;font-variant-ligatures:normal;font-variant-numeric:normal">$AQ</tspan>
</text>
<text x="555.3418" y="55.839844" font-family="'DejaVu Sans'" font-size="20px" text-align="center" text-anchor="middle" style="font-feature-settings:normal;font-variant-caps:normal;font-variant-ligatures:normal;font-variant-numeric:normal">in ppm</text>
<path d="m19.8 41.906h1.52c0.28 0 0.52-0.22 0.52-0.52 0-0.28-0.22-0.52-0.52-0.52h-1.52c-0.28 0-0.52 0.22-0.52 0.52s0.24 0.52 0.52 0.52z" stroke-width=".05"/>
<path d="m22.12 46.186h-2.32c-0.28 0-0.52 0.22-0.52 0.52 0 0.28 0.22 0.52 0.52 0.52h2.32c0.28 0 0.52-0.22 0.52-0.52s-0.24-0.52-0.52-0.52z" stroke-width=".05"/>
<path d="m19.78 48.966c-0.12-0.24-0.28-0.46-0.46-0.68-0.12-0.14-0.26-0.28-0.38-0.42v-6.36c0-0.4-0.08-0.8-0.22-1.14-0.48-1.14-1.54-1.86-2.78-1.86s-2.3 0.72-2.78 1.86c-0.14 0.36-0.22 0.74-0.22 1.14v6.38c-0.14 0.12-0.26 0.26-0.38 0.42-0.18 0.22-0.32 0.44-0.46 0.68-0.18 0.32-0.32 0.66-0.4 1.02-0.1 0.36-0.14 0.72-0.14 1.1 0 0.6 0.12 1.16 0.34 1.68 0.22 0.54 0.56 1.02 0.96 1.42s0.88 0.72 1.42 0.96c0.52 0.22 1.08 0.34 1.68 0.34 1.22 0 2.32-0.5 3.1-1.28 0.4-0.4 0.72-0.88 0.96-1.42 0.22-0.52 0.34-1.08 0.34-1.68 0-0.38-0.04-0.74-0.14-1.1-0.12-0.4-0.26-0.74-0.44-1.06zm-0.74 3.4c-0.16 0.4-0.42 0.78-0.74 1.1-0.6 0.6-1.46 0.98-2.38 0.98-0.46 0-0.9-0.1-1.28-0.26-0.4-0.16-0.78-0.42-1.1-0.74s-0.56-0.68-0.74-1.1c-0.16-0.4-0.26-0.82-0.26-1.28 0-0.3 0.04-0.58 0.1-0.84 0.06-0.28 0.18-0.54 0.32-0.78 0.1-0.18 0.22-0.36 0.34-0.52 0.14-0.16 0.28-0.3 0.44-0.44l0.18-0.16v-6.82c0-0.26 0.06-0.52 0.14-0.76 0.1-0.22 0.22-0.42 0.38-0.6l0.04-0.04c0.18-0.18 0.4-0.34 0.64-0.44s0.48-0.14 0.76-0.14c0.26 0 0.52 0.06 0.76 0.14 0.24 0.1 0.46 0.24 0.64 0.44l0.04 0.04c0.16 0.18 0.3 0.38 0.38 0.6 0.1 0.24 0.14 0.48 0.14 0.76v6.86l0.18 0.16c0.16 0.14 0.3 0.28 0.44 0.44 0.12 0.16 0.24 0.34 0.34 0.52 0.14 0.24 0.24 0.52 0.32 0.78 0.06 0.26 0.1 0.54 0.1 0.84 0.08 0.44-0.02 0.88-0.18 1.26z" stroke-width=".05"/>
<path d="m19.8 43.686h2.32c0.28 0 0.52-0.22 0.52-0.52-0.02-0.3-0.24-0.52-0.52-0.52h-2.32c-0.28 0-0.52 0.22-0.52 0.52 0 0.28 0.22 0.52 0.52 0.52z" stroke-width=".05"/>
<path d="m19.8 45.446h1.52c0.28 0 0.52-0.22 0.52-0.52 0-0.28-0.22-0.52-0.52-0.52h-1.52c-0.28 0-0.52 0.22-0.52 0.52 0 0.28 0.24 0.52 0.52 0.52z" stroke-width=".05"/>
<path d="m18.22 49.826c-0.1-0.2-0.24-0.36-0.38-0.52-0.16-0.16-0.32-0.3-0.5-0.42l-0.18-0.12v-2.66c0-0.5-0.28-0.94-0.76-1.12-0.14-0.06-0.3-0.1-0.46-0.1s-0.32 0.04-0.46 0.1c-0.46 0.2-0.76 0.62-0.76 1.12v2.66l-0.18 0.12c-0.18 0.12-0.36 0.26-0.5 0.42-0.16 0.16-0.28 0.34-0.38 0.52s-0.18 0.4-0.24 0.6-0.08 0.42-0.08 0.64c0 0.34 0.08 0.68 0.2 1 0.14 0.32 0.32 0.6 0.56 0.84s0.52 0.44 0.84 0.56c0.3 0.12 0.64 0.2 1 0.2 0.34 0 0.68-0.08 1-0.2 0.32-0.14 0.6-0.32 0.84-0.56s0.44-0.52 0.56-0.84c0.12-0.3 0.2-0.64 0.2-1 0-0.22-0.02-0.44-0.08-0.64s-0.14-0.4-0.24-0.6z" stroke-width=".05"/>
<text x="9.6788454" y="86.648438" fill="#000000" font-family="'DejaVu Sans'" font-size="13.333px" letter-spacing="0px" word-spacing="0px" style="font-feature-settings:normal;font-variant-caps:normal;font-variant-ligatures:normal;font-variant-numeric:normal;line-height:1.25" xml:space="preserve"><tspan font-family="'DejaVu Sans'" font-size="16px" style="font-feature-settings:normal;font-variant-caps:normal;font-variant-ligatures:normal;font-variant-numeric:normal">$BSH</tspan></text>
<text x="10.221814" y="72.500305" font-family="'DejaVu Sans'" font-size="6.6667px" style="font-feature-settings:normal;font-variant-caps:normal;font-variant-ligatures:normal;font-variant-numeric:normal">
<tspan font-family="'DejaVu Sans'" font-size="8px" style="font-feature-settings:normal;font-variant-caps:normal;font-variant-ligatures:normal;font-variant-numeric:normal">MAX</tspan>
</text>
<text x="9.6788454" y="110.64874" fill="#000000" font-family="'DejaVu Sans'" font-size="16px" letter-spacing="0px" word-spacing="0px" style="font-feature-settings:normal;font-variant-caps:normal;font-variant-ligatures:normal;font-variant-numeric:normal;line-height:1.25" xml:space="preserve">$BSL</text>
<text x="10.221814" y="97" font-family="'DejaVu Sans'" font-size="8px" style="font-feature-settings:normal;font-variant-caps:normal;font-variant-ligatures:normal;font-variant-numeric:normal">
<tspan font-family="'DejaVu Sans'" font-size="8px" style="font-feature-settings:normal;font-variant-caps:normal;font-variant-ligatures:normal;font-variant-numeric:normal">MIN</tspan>
</text>
<text x="45.759533" y="111.16176" font-family="'DejaVu Sans'" font-size="53.333px" style="font-feature-settings:normal;font-variant-caps:normal;font-variant-ligatures:normal;font-variant-numeric:normal">
<tspan font-family="'DejaVu Sans'" font-size="60px" style="font-feature-settings:normal;font-variant-caps:normal;font-variant-ligatures:normal;font-variant-numeric:normal">$BT</tspan>
</text>
<text x="58.775097" y="55.716797" font-family="'DejaVu Sans'" font-size="20px" text-align="center" text-anchor="middle" style="font-feature-settings:normal;font-variant-caps:normal;font-variant-ligatures:normal;font-variant-numeric:normal">in C</text>
<path d="m10 127h580v-2h-580z" stroke-width="1.0967"/>
<path d="m16.196 148.99c-0.22862-0.0998-0.45101-0.20992-0.66717-0.32841l-1.0371 1.7708c-0.22447-0.0561-0.45517-0.0853-0.68795-0.0853-0.37827 0-0.74615 0.0749-1.0912 0.22035-0.33462 0.14131-0.63391 0.34293-0.89163 0.60061-0.25772 0.25772-0.45933 0.55704-0.60066 0.89164-0.14757 0.34711-0.22031 0.71497-0.22031 1.0912s0.07482 0.74614 0.22031 1.0912c0.14133 0.33462 0.34294 0.63391 0.60066 0.89163s0.55701 0.45933 0.89163 0.60066c0.34709 0.14756 0.71497 0.22031 1.0912 0.22031 0.37619 0 0.74614-0.0748 1.0912-0.22031 0.33462-0.14135 0.63391-0.34294 0.89163-0.60066s0.45933-0.55703 0.60066-0.89163c0.01249-0.027 0.02288-0.0561 0.03327-0.0831h8.6108l0.83136 1.4507c0.14341 0.25149 0.40737 0.39282 0.67756 0.39282 0.13096 0 0.26398-0.0333 0.38662-0.10392 0.37411-0.21409 0.50295-0.69005 0.28886-1.0642l-3.5458-6.1874c-0.25562 0.14131-0.51752 0.26812-0.78771 0.38243-0.21406 0.0893-0.43021 0.17249-0.64844 0.24315l1.9059 3.3254h-7.5862c-0.03741-0.18498-0.09353-0.3658-0.16627-0.54038-0.13094-0.31176-0.31592-0.59442-0.5487-0.83762l1.1327-1.935c-0.26188-0.0852-0.51958-0.18284-0.77524-0.29509zm-1.6606 5.169c-0.20576 0.14967-0.45725 0.23694-0.7316 0.23694-0.68795 0-1.245-0.55703-1.245-1.245 0-0.6256 0.4614-1.1431 1.0641-1.2325 0.06027-8e-3 0.12055-0.0125 0.18082-0.0125 0.4905 0 0.9145 0.2827 1.1161 0.69418 0.01663 0.0354 0.03326 0.0707 0.04573 0.106 0.05196 0.13722 0.08106 0.28684 0.08106 0.44478 0.0021 0.4157-0.19953 0.78148-0.51129 1.008z" stroke-width=".020784"/>
<path d="m28.878 142.89c0.57368 0 1.0392-0.46556 1.0392-1.0392s-0.46552-1.0392-1.0392-1.0392h-0.83136c0.0063 0.1351 0.01039 0.27227 0.01039 0.41152 0 0.56533-0.05404 1.1223-0.16415 1.6669z" stroke-width=".020784"/>
<path d="m27.538 141.22c0-0.13925-0.0041-0.27643-0.01039-0.41152-0.01247-0.24941-0.03739-0.49466-0.07274-0.73576-0.06023-0.40528-0.4115-0.70457-0.82097-0.70457l-14.1-8e-3c-0.4136 0-0.76485 0.30553-0.82305 0.71497-0.05196 0.36164-0.07898 0.7316-0.08106 1.1078-0.01455 3.0241 1.6731 5.672 4.163 7.0292 0.45725 0.24941 0.94152 0.45517 1.4486 0.61105 0.70666 0.21823 1.4549 0.34086 2.2301 0.35125h0.11431c0.83136 0 1.6336-0.12678 2.386-0.36372 0.50503-0.15796 0.98724-0.3658 1.4424-0.61731 1.9911-1.0953 3.4626-3.0199 3.951-5.3082 0.11225-0.53623 0.17249-1.0932 0.17249-1.6648zm-9.4567 6.3744c-0.03533-0.0104-0.06859-0.0208-0.10392-0.0312-0.50505-0.15175-0.99348-0.35333-1.4549-0.5986-2.0888-1.1099-3.6268-3.1322-3.6206-5.6824v-0.0478c0.0021-0.43231 0.35125-0.7794 0.78356-0.7794s0.7794 0.35125 0.7794 0.78356c0 0.0312-0.0021 0.0603-0.0062 0.0914v2e-3c0 2e-3 -0.0021 6e-3 -0.0021 0.0125-0.0021 0.0125-0.0042 0.0333-0.0062 0.0624-0.19537 2.0514 0.80434 3.8908 2.334 5.1129 0.40529 0.32427 0.85004 0.60486 1.3177 0.83348 0.02078 0.0104 0.03949 0.0187 0.06027 0.0291 0.12474 0.0603 0.05406 0.25152-0.08104 0.21201z" stroke-width=".020784"/>
<path d="m17.778 136.8c-0.19537 8e-3 -0.3949 0.0291-0.58819 0.0748-0.19331 0.0457-0.38242 0.11015-0.55703 0.19537-0.17456 0.0852-0.33254 0.18913-0.46764 0.30552s-0.24731 0.24318-0.33462 0.36996-0.14757 0.25356-0.19121 0.36788c-0.04157 0.11431-0.06443 0.21823-0.07482 0.30344-0.0021 0.0208-0.0042 0.0416-0.0062 0.0603-0.0021 0.0187-0.0021 0.0374-0.0021 0.054v0.0457c0 0.0146 0.0021 0.027 0.0021 0.0374 0.0021 0.0457 0.0083 0.0707 0.0083 0.0707s0.01663-0.0187 0.0478-0.0478c0.01663-0.0146 0.03533-0.0333 0.0582-0.054 0.02286-0.0208 0.04988-0.0436 0.07898-0.0686 0.06027-0.0499 0.13094-0.106 0.21408-0.16212 0.08314-0.0561 0.17666-0.11431 0.28058-0.16627 0.10184-0.052 0.21408-0.10184 0.33254-0.14341 0.02702-0.0104 0.05612-0.0187 0.08521-0.027 0.09353-0.0291 0.19121-0.0561 0.29308-0.0769 0.133-0.0291 0.27019-0.0499 0.41358-0.0665 0.14341-0.0166 0.29308-0.0229 0.44478-0.0291l0.11431-4e-3 0.04365-2e-3 0.03328-2e-3 0.06443-2e-3 0.03327-2e-3h0.03531c0.02494-2e-3 0.05196-4e-3 0.0769-8e-3 0.02494-2e-3 0.05196-6e-3 0.0769-8e-3l0.03741-4e-3c0.01249-2e-3 0.02494-4e-3 0.03741-6e-3 0.04782-8e-3 0.09768-0.0166 0.14549-0.0249 0.04782-0.0104 0.09563-0.0229 0.14341-0.0332 0.02286-4e-3 0.0478-0.0125 0.07066-0.0187 0.02286-6e-3 0.0478-0.0146 0.07064-0.0208 0.0478-0.0125 0.09353-0.0312 0.13925-0.0499 0.1829-0.0707 0.35541-0.16627 0.50297-0.28059 0.14757-0.11431 0.27019-0.24733 0.35748-0.38658 0.08727-0.13717 0.14133-0.27643 0.17041-0.40113 0.0291-0.1247 0.03327-0.23278 0.02704-0.32007-0.0021-0.0436-0.0083-0.0831-0.01455-0.11432-0.0062-0.0333-0.01455-0.0603-0.02078-0.0831-0.01455-0.0436-0.02494-0.0665-0.02494-0.0665s-0.01247 0.0229-0.03533 0.0582c-0.01247 0.0187-0.02702 0.0416-0.04365 0.0665-0.0083 0.0125-0.01871 0.0249-0.0291 0.0395s-0.02078 0.0291-0.03325 0.0437c-0.0478 0.0582-0.10602 0.1247-0.17876 0.18706-0.07274 0.0623-0.15588 0.12262-0.24941 0.1725-0.18706 0.0998-0.40942 0.16212-0.67132 0.19537h-0.0062c-0.13094 0.0166-0.27019 0.027-0.41776 0.0312l-0.02704 2e-3h-0.31802 0.0083-0.0042z" stroke-width=".020784"/>
<path d="m22.142 136.8c-0.19537 8e-3 -0.3949 0.0291-0.58817 0.0748-0.19331 0.0457-0.38242 0.11015-0.55703 0.19537-0.17461 0.0852-0.33254 0.18913-0.46764 0.30552s-0.24733 0.24318-0.33462 0.36996-0.14757 0.25356-0.19121 0.36788c-0.04157 0.11431-0.06443 0.21823-0.07482 0.30344-0.0021 0.0208-0.0042 0.0416-0.0062 0.0603-0.0021 0.0187-0.0021 0.0374-0.0021 0.054v0.0457c0 0.0146 0.0021 0.027 0.0021 0.0374 0.0021 0.0457 0.0083 0.0707 0.0083 0.0707s0.01663-0.0187 0.0478-0.0478c0.01665-0.0146 0.03533-0.0333 0.05822-0.054 0.02286-0.0208 0.04986-0.0436 0.07898-0.0686 0.06025-0.0499 0.13094-0.106 0.21408-0.16212 0.08314-0.0561 0.17666-0.11431 0.28058-0.16627 0.10184-0.052 0.21405-0.10184 0.33254-0.14341 0.027-0.0104 0.0561-0.0187 0.08521-0.027 0.09353-0.0291 0.19119-0.0561 0.29306-0.0769 0.13302-0.0291 0.27019-0.0499 0.4136-0.0665s0.29306-0.0229 0.44478-0.0291l0.11431-4e-3 0.04365-2e-3 0.03326-2e-3 0.06443-2e-3 0.0333-2e-3h0.03531c0.02492-2e-3 0.05196-4e-3 0.07688-8e-3 0.02496-2e-3 0.05196-6e-3 0.07692-8e-3l0.03739-4e-3c0.01251-2e-3 0.02496-4e-3 0.03743-6e-3 0.04782-8e-3 0.09766-0.0166 0.14549-0.0249 0.04782-0.0104 0.09561-0.0229 0.14341-0.0332 0.02286-4e-3 0.04778-0.0125 0.07067-0.0187 0.02286-6e-3 0.04778-0.0146 0.07062-0.0208 0.04782-0.0125 0.09353-0.0312 0.13927-0.0499 0.18288-0.0707 0.35541-0.16627 0.50295-0.28059 0.14754-0.11431 0.27019-0.24733 0.3575-0.38658 0.08727-0.13717 0.14131-0.27643 0.17041-0.40113s0.03326-0.23278 0.02704-0.32007c-0.0021-0.0436-0.0083-0.0831-0.01457-0.11432-0.0062-0.0333-0.01453-0.0603-0.02078-0.0831-0.01453-0.0436-0.02492-0.0665-0.02492-0.0665s-0.01247 0.0229-0.03535 0.0582c-0.01247 0.0187-0.027 0.0416-0.04365 0.0665-0.0083 0.0125-0.01871 0.0249-0.0291 0.0395s-0.02078 0.0291-0.03325 0.0437c-0.04778 0.0582-0.106 0.1247-0.17874 0.18706-0.07274 0.0623-0.15588 0.12262-0.24941 0.1725-0.18706 0.0998-0.40942 0.16212-0.67134 0.19537h-0.0062c-0.13096 0.0166-0.27019 0.027-0.41776 0.0312l-0.02704 2e-3h-0.31804 0.0083-0.0041z" stroke-width=".020784"/>
<text x="36.843769" y="152.2168" fill="#000000" font-family="'DejaVu Sans'" font-size="40px" letter-spacing="0px" word-spacing="0px" style="line-height:1.25" xml:space="preserve"><tspan x="36.843769" y="152.2168" font-family="'DejaVu Sans'" font-size="20px" text-decoration="underline" style="font-feature-settings:normal;font-variant-caps:normal;font-variant-ligatures:normal;font-variant-numeric:normal;text-decoration-line:underline">Auen</tspan></text>
<path d="m162.34 401v87h1v-87z" stroke-width=".30034"/>
<path d="m337.53 401v87h1v-87z" stroke-width=".30034"/>
<text x="221.00034" y="466.98151" font-family="'DejaVu Sans'" font-size="6.6667px" text-align="end" text-anchor="end" style="font-feature-settings:normal;font-variant-caps:normal;font-variant-ligatures:normal;font-variant-numeric:normal">
<tspan font-family="'DejaVu Sans'" font-size="8px" text-align="end" text-anchor="end" style="font-feature-settings:normal;font-variant-caps:normal;font-variant-ligatures:normal;font-variant-numeric:normal">MIN</tspan>
</text>
<text x="220.89062" y="480.64844" fill="#000000" font-family="'DejaVu Sans'" font-size="13.333px" letter-spacing="0px" text-align="end" text-anchor="end" word-spacing="0px" style="font-feature-settings:normal;font-variant-caps:normal;font-variant-ligatures:normal;font-variant-numeric:normal;line-height:1.25" xml:space="preserve"><tspan font-family="'DejaVu Sans'" font-size="16px" text-align="end" text-anchor="end" style="font-feature-settings:normal;font-variant-caps:normal;font-variant-ligatures:normal;font-variant-numeric:normal">$CAL</tspan></text>
<text x="220.07422" y="442.51849" font-family="'DejaVu Sans'" font-size="6.6667px" text-align="end" text-anchor="end" style="font-feature-settings:normal;font-variant-caps:normal;font-variant-ligatures:normal;font-variant-numeric:normal">
<tspan font-family="'DejaVu Sans'" font-size="8px" text-align="end" text-anchor="end" style="font-feature-settings:normal;font-variant-caps:normal;font-variant-ligatures:normal;font-variant-numeric:normal">MAX</tspan>
</text>
<text x="221.01559" y="456.64844" fill="#000000" font-family="'DejaVu Sans'" font-size="13.333px" letter-spacing="0px" text-align="end" text-anchor="end" word-spacing="0px" style="font-feature-settings:normal;font-variant-caps:normal;font-variant-ligatures:normal;font-variant-numeric:normal;line-height:1.25" xml:space="preserve"><tspan font-family="'DejaVu Sans'" font-size="16px" text-align="end" text-anchor="end" style="font-feature-settings:normal;font-variant-caps:normal;font-variant-ligatures:normal;font-variant-numeric:normal">$CAH</tspan></text>
<text x="224.01953" y="481.18164" font-family="'DejaVu Sans'" font-size="53.333px" style="font-feature-settings:normal;font-variant-caps:normal;font-variant-ligatures:normal;font-variant-numeric:normal">
<tspan font-family="'DejaVu Sans'" font-size="60px" style="font-feature-settings:normal;font-variant-caps:normal;font-variant-ligatures:normal;font-variant-numeric:normal">$CL</tspan>
</text>
<text x="259.57065" y="425.2168" font-family="'DejaVu Sans'" font-size="20px" text-align="center" text-anchor="middle" style="font-feature-settings:normal;font-variant-caps:normal;font-variant-ligatures:normal;font-variant-numeric:normal">in %</text>
<circle cx="223.6" cy="423.49" r=".53182" stroke-width=".033239"/>
<circle cx="220.4" cy="418.17" r=".53182" stroke-width=".033239"/>
<path d="m224.95 411.73c-0.87006-1.1094-1.7688-2.256-2.4942-3.4868-0.19146-0.32441-0.72541-0.32441-0.91581 0-0.72647 1.2306-1.6252 2.3772-2.4953 3.4868-1.7635 2.2496-3.4293 4.3749-3.4293 6.8881 0 3.5197 2.8623 6.3819 6.3819 6.3819s6.3819-2.8623 6.3819-6.3819c0-2.5134-1.6657-4.6385-3.4293-6.8881zm-4.5481 2.6336c0.87963 0 1.5955 0.71584 1.5955 1.5955 0 0.87963-0.71584 1.5955-1.5955 1.5955-0.87964 0-1.5955-0.71584-1.5955-1.5955 0-0.87964 0.71583-1.5955 1.5955-1.5955zm-0.68712 7.2903c-0.10424 0.10318-0.24038 0.1553-0.37653 0.1553s-0.27229-0.0521-0.37653-0.1553c-0.20741-0.20741-0.20741-0.54458 0-0.752l5.3182-5.3182c0.20741-0.20741 0.54459-0.20741 0.752 0 0.20741 0.20742 0.20847 0.54459 1e-3 0.752zm3.878 1.2189c-0.87963 0-1.5955-0.71583-1.5955-1.5955s0.71584-1.5955 1.5955-1.5955c0.87964 0 1.5955 0.71583 1.5955 1.5955s-0.71584 1.5955-1.5955 1.5955z" stroke-width=".033239"/>
<path d="m495.31 417.26h-9.2645v1.3477h9.2645c1.0348 0 1.8766 0.84186 1.8766 1.8767 0 0.92141-0.74963 1.6711-1.6711 1.6711-0.81728 0-1.4821-0.66486-1.4821-1.4821h-1.3477c0 1.5604 1.2695 2.8298 2.8298 2.8298 1.6646 0 3.0188-1.3542 3.0188-3.0188 0-1.7779-1.4464-3.2244-3.2243-3.2244z" stroke-width=".044923"/>
<path d="m500.76 408.6c-2.3454 0-4.2536 1.9082-4.2536 4.2536h1.3477c0-1.6023 1.3036-2.9059 2.9059-2.9059 1.7753 0 3.2197 1.4443 3.2197 3.2197 0 1.9635-1.5975 3.561-3.561 3.561h-18.092v1.3477h18.092c2.7067 0 4.9087-2.202 4.9087-4.9087 0-2.5185-2.0489-4.5673-4.5673-4.5673z" stroke-width=".044923"/>
<path d="m489.88 409.25c-1.3181 0-2.3905 1.0724-2.3905 2.3905h1.3477c0-0.57501 0.46783-1.0428 1.0428-1.0428 0.65803 0 1.1933 0.5353 1.1933 1.1933 0 0.74828-0.60871 1.357-1.357 1.357h-6.72v1.3477h6.72c1.4914 0 2.7047-1.2133 2.7047-2.7047 0-1.4011-1.1399-2.541-2.541-2.541z" stroke-width=".044923"/>
<text transform="scale(.99999 1)" x="588.57935" y="442.99588" font-family="'DejaVu Sans'" font-size="7.9999px" stroke-width=".99999" text-align="end" text-anchor="end" style="font-feature-settings:normal;font-variant-caps:normal;font-variant-ligatures:normal;font-variant-numeric:normal">
<tspan stroke-width=".99999" text-align="end" text-anchor="end">MAX</tspan>
</text>
<text x="590.19061" y="457.14844" font-family="'DejaVu Sans'" font-size="13.333px" text-align="end" text-anchor="end" style="font-feature-settings:normal;font-variant-caps:normal;font-variant-ligatures:normal;font-variant-numeric:normal">
<tspan font-family="'DejaVu Sans'" font-size="16px" text-align="end" text-anchor="end" style="font-feature-settings:normal;font-variant-caps:normal;font-variant-ligatures:normal;font-variant-numeric:normal">$CHW</tspan>
</text>
<text x="591.09637" y="481.20187" font-family="'DejaVu Sans'" text-align="end" text-anchor="end" style="font-feature-settings:normal;font-variant-caps:normal;font-variant-ligatures:normal;font-variant-numeric:normal">
<tspan font-size="60px" text-align="end" style="font-feature-settings:normal;font-variant-caps:normal;font-variant-ligatures:normal;font-variant-numeric:normal">$CW</tspan>
<tspan font-size="30px">$CD</tspan>
</text>
<text x="552.08795" y="425.14453" font-family="'DejaVu Sans'" font-size="35px" text-anchor="middle">
<tspan font-family="'DejaVu Sans'" font-size="20px" text-align="center" text-anchor="middle" style="font-feature-settings:normal;font-variant-caps:normal;font-variant-ligatures:normal;font-variant-numeric:normal">in km/h</tspan>
</text>
<text x="7.4653983" y="481.20184" font-family="'DejaVu Sans'" font-size="100px" style="font-feature-settings:normal;font-variant-caps:normal;font-variant-ligatures:normal;font-variant-numeric:normal">
<tspan font-family="'DejaVu Sans'" font-size="60px" style="font-feature-settings:normal;font-variant-caps:normal;font-variant-ligatures:normal;font-variant-numeric:normal">$CR</tspan>
</text>
<text x="92.411354" y="424.89911" font-family="'DejaVu Sans'" font-size="20px" text-align="center" text-anchor="middle" style="font-feature-settings:normal;font-variant-caps:normal;font-variant-ligatures:normal;font-variant-numeric:normal">in mm/24h</text>
<path d="m29.054 417.03c-0.43875-0.3153-1.1047-0.51655-1.8507-0.51655-1.155 0-2.1187 0.48227-2.3429 1.1236h-0.09623c-0.21871-0.64554-1.1854-1.1321-2.3454-1.1321-0.74718 0-1.4128 0.20252-1.8513 0.51873v5.4289c0 1.3512-1.0992 2.4503-2.4504 2.4503s-2.4504-1.0992-2.4504-2.4503c0-0.29857 0.24196-0.5405 0.54053-0.5405s0.54053 0.24193 0.54053 0.5405c0 0.75502 0.61425 1.3693 1.3693 1.3693 0.75502 0 1.3693-0.61425 1.3693-1.3693v-5.42c-0.43864-0.31639-1.1046-0.51914-1.8521-0.51914-1.155 0-2.1187 0.48227-2.3429 1.1236h-0.0962c-0.21874-0.64554-1.1854-1.1321-2.3454-1.1321-0.7455 0-1.4111 0.20096-1.8498 0.5159 0.35252-3.8495 3.9745-6.9092 8.4866-7.1369v-0.40406c0-0.2986 0.24196-0.54053 0.54053-0.54053s0.54053 0.24196 0.54053 0.54053v0.40412c4.515 0.22836 8.1388 3.2928 8.4866 7.1461zm-16.748-8.0907s-0.78355 1.5468-0.78355 1.9795c0 0.43271 0.35082 0.78355 0.78355 0.78355 0.43274 0 0.78355-0.35081 0.78355-0.78355 0-0.43276-0.78355-1.9795-0.78355-1.9795zm2.2183-1.0364s-0.58779 1.1603-0.58779 1.485 0.26317 0.58779 0.58779 0.58779 0.58779-0.26317 0.58779-0.58779-0.58779-1.485-0.58779-1.485z" stroke-width=".0295"/>
<path d="m243.12 162.75h2.2353c0.41176 0 0.7647-0.32353 0.7647-0.7647 0-0.41176-0.32353-0.7647-0.7647-0.7647h-2.2353c-0.41177 0-0.76471 0.32353-0.76471 0.7647s0.35294 0.7647 0.76471 0.7647z" stroke-width=".073529"/>
<path d="m246.53 169.04h-3.4117c-0.41177 0-0.76471 0.32353-0.76471 0.76471 0 0.41176 0.32353 0.7647 0.76471 0.7647h3.4117c0.41176 0 0.7647-0.32353 0.7647-0.7647 0-0.44118-0.35294-0.76471-0.7647-0.76471z" stroke-width=".073529"/>
<path d="m243.09 173.13c-0.17647-0.35294-0.41176-0.67647-0.67646-1-0.17647-0.20588-0.38235-0.41176-0.55882-0.61764v-9.3529c0-0.58823-0.11765-1.1765-0.32353-1.6765-0.70588-1.6765-2.2647-2.7353-4.0882-2.7353s-3.3823 1.0588-4.0882 2.7353c-0.20588 0.52941-0.32352 1.0882-0.32352 1.6765v9.3823c-0.20588 0.17647-0.38235 0.38235-0.55882 0.61764-0.26471 0.32353-0.47059 0.64706-0.67647 1-0.2647 0.47058-0.47059 0.97058-0.58823 1.5-0.14706 0.52941-0.20588 1.0588-0.20588 1.6176 0 0.88235 0.17647 1.7059 0.49999 2.4706 0.32353 0.79412 0.82353 1.5 1.4118 2.0882 0.58823 0.58823 1.2941 1.0588 2.0882 1.4118 0.76471 0.32353 1.5882 0.5 2.4706 0.5 1.7941 0 3.4117-0.73529 4.5588-1.8823 0.58823-0.58823 1.0588-1.2941 1.4118-2.0882 0.32353-0.7647 0.5-1.5882 0.5-2.4706 0-0.55882-0.0588-1.0882-0.20588-1.6176-0.17647-0.58823-0.38235-1.0882-0.64706-1.5588zm-1.0882 5c-0.2353 0.58823-0.61765 1.147-1.0882 1.6176-0.88235 0.88234-2.147 1.4412-3.5 1.4412-0.67647 0-1.3235-0.14706-1.8824-0.38236-0.58823-0.23529-1.147-0.61764-1.6176-1.0882-0.47059-0.47059-0.82353-1-1.0882-1.6176-0.2353-0.58823-0.38235-1.2059-0.38235-1.8824 0-0.44117 0.0588-0.85293 0.14705-1.2353 0.0882-0.41176 0.26471-0.79412 0.47059-1.147 0.14706-0.26471 0.32353-0.52941 0.5-0.76471 0.20588-0.23529 0.41176-0.44117 0.64705-0.64705l0.26471-0.23529v-10.029c0-0.38235 0.0882-0.7647 0.20588-1.1176 0.14705-0.32353 0.32352-0.61764 0.55882-0.88235l0.0588-0.0588c0.2647-0.26471 0.58823-0.5 0.94117-0.64706s0.70588-0.20588 1.1176-0.20588c0.38235 0 0.7647 0.0882 1.1176 0.20588 0.35294 0.14706 0.67647 0.35294 0.94117 0.64706l0.0588 0.0588c0.23529 0.26471 0.44117 0.55882 0.55882 0.88235 0.14706 0.35294 0.20588 0.70588 0.20588 1.1176v10.088l0.2647 0.23529c0.2353 0.20588 0.44118 0.41176 0.64706 0.64706 0.17647 0.23529 0.35294 0.49999 0.5 0.7647 0.20588 0.35294 0.35294 0.7647 0.47058 1.147 0.0882 0.38235 0.14706 0.79411 0.14706 1.2353 0.11765 0.64705-0.0294 1.2941-0.2647 1.8529z" stroke-width=".073529"/>
<path d="m243.12 165.37h3.4117c0.41176 0 0.7647-0.32352 0.7647-0.7647-0.0294-0.44117-0.35294-0.7647-0.7647-0.7647h-3.4117c-0.41177 0-0.76471 0.32353-0.76471 0.7647 0 0.41177 0.32353 0.7647 0.76471 0.7647z" stroke-width=".073529"/>
<path d="m243.12 167.96h2.2353c0.41176 0 0.7647-0.32353 0.7647-0.76471 0-0.41176-0.32353-0.7647-0.7647-0.7647h-2.2353c-0.41177 0-0.76471 0.32353-0.76471 0.7647 0 0.41177 0.35294 0.76471 0.76471 0.76471z" stroke-width=".073529"/>
<path d="m238.8 174.4c-0.14706-0.29412-0.35294-0.52941-0.55882-0.76471-0.23529-0.23529-0.47059-0.44117-0.73529-0.61764l-0.26471-0.17647v-3.9117c0-0.73529-0.41176-1.3824-1.1176-1.647-0.20588-0.0882-0.44117-0.14706-0.67646-0.14706-0.2353 0-0.47059 0.0588-0.67647 0.14706-0.67647 0.29411-1.1176 0.91176-1.1176 1.647v3.9117l-0.2647 0.17647c-0.26471 0.17647-0.52941 0.38235-0.73529 0.61764-0.2353 0.2353-0.41177 0.5-0.55883 0.76471-0.14705 0.2647-0.2647 0.58823-0.35293 0.88234-0.0882 0.29412-0.11765 0.61765-0.11765 0.94117 0 0.5 0.11765 1 0.29412 1.4706 0.20588 0.47059 0.47058 0.88235 0.82352 1.2353s0.7647 0.64706 1.2353 0.82353c0.44117 0.17647 0.94117 0.29411 1.4706 0.29411 0.49999 0 0.99999-0.11764 1.4706-0.29411 0.47058-0.20588 0.88235-0.47059 1.2353-0.82353 0.35294-0.35294 0.64706-0.7647 0.82353-1.2353 0.17647-0.44117 0.29412-0.94117 0.29412-1.4706 0-0.32352-0.0294-0.64705-0.11765-0.94117-0.0882-0.29411-0.20588-0.58823-0.35294-0.88234z" stroke-width=".073529"/>
<text x="339.96875" y="359.297" fill="#000000" font-family="'DejaVu Sans'" font-size="40px" letter-spacing="0px" text-align="end" text-anchor="end" word-spacing="0px" style="font-feature-settings:normal;font-variant-caps:normal;font-variant-ligatures:normal;font-variant-numeric:normal;line-height:1.25" xml:space="preserve"><tspan font-family="'DejaVu Sans'" font-size="32px" text-align="end" text-anchor="end" style="font-feature-settings:normal;font-variant-caps:normal;font-variant-ligatures:normal;font-variant-numeric:normal">$CHL</tspan></text>
<text x="226.14844" y="332.51251" font-family="'DejaVu Sans'" font-size="16px" text-align="end" text-anchor="end" style="font-feature-settings:normal;font-variant-caps:normal;font-variant-ligatures:normal;font-variant-numeric:normal">MAX</text>
<text x="227.22232" y="359.297" fill="#000000" font-family="'DejaVu Sans'" font-size="40px" letter-spacing="0px" text-align="end" text-anchor="end" word-spacing="0px" style="font-feature-settings:normal;font-variant-caps:normal;font-variant-ligatures:normal;font-variant-numeric:normal;line-height:1.25" xml:space="preserve"><tspan font-family="'DejaVu Sans'" font-size="32px" text-align="end" text-anchor="end" style="font-feature-settings:normal;font-variant-caps:normal;font-variant-ligatures:normal;font-variant-numeric:normal">$CHH</tspan></text>
<text x="337.92969" y="333.09827" font-family="'DejaVu Sans'" font-size="16px" text-align="end" text-anchor="end" style="font-feature-settings:normal;font-variant-caps:normal;font-variant-ligatures:normal;font-variant-numeric:normal">
<tspan font-family="'DejaVu Sans'" font-size="16px" text-align="end" text-anchor="end" style="font-feature-settings:normal;font-variant-caps:normal;font-variant-ligatures:normal;font-variant-numeric:normal">MIN</tspan>
</text>
<text x="348.56149" y="295.40375" font-family="'DejaVu Sans'" font-size="133.33px" text-align="end" text-anchor="end" style="font-feature-settings:normal;font-variant-caps:normal;font-variant-ligatures:normal;font-variant-numeric:normal">
<tspan font-family="'DejaVu Sans'" font-size="133.33px" text-align="end" text-anchor="end" style="font-feature-settings:normal;font-variant-caps:normal;font-variant-ligatures:normal;font-variant-numeric:normal">$CT</tspan>
</text>
<text x="298.78275" y="183.08514" font-family="'DejaVu Sans'" font-size="33.333px" text-align="center" text-anchor="middle" style="font-feature-settings:normal;font-variant-caps:normal;font-variant-ligatures:normal;font-variant-numeric:normal">in C</text>
<use transform="matrix(2.3 0 0 2.3 354 143)" width="100%" height="100%" font-family="'DejaVu Sans'" xlink:href="#$I0"/>
<path d="m10 497.67h580v1h-580z" stroke-width=".77547"/>
<text transform="scale(.9987 1.0013)" x="154.35934" y="739.61346" font-family="'DejaVu Sans'" font-size="44px" text-anchor="middle">
<tspan font-family="'DejaVu Sans'" font-size="26.667px" text-align="center" text-anchor="middle" style="font-feature-settings:normal;font-variant-caps:normal;font-variant-ligatures:normal;font-variant-numeric:normal">$L1</tspan>
</text>
<text x="51.291183" y="740.58069" font-family="'DejaVu Sans'" font-size="44px" text-anchor="middle">
<tspan font-family="'DejaVu Sans'" font-size="26.667px" text-align="center" text-anchor="middle" style="font-feature-settings:normal;font-variant-caps:normal;font-variant-ligatures:normal;font-variant-numeric:normal">$H1</tspan>
</text>
<text x="154.25961" y="704.77295" font-family="'DejaVu Sans'" font-size="20px" text-anchor="middle">
<tspan font-family="'DejaVu Sans'" font-size="17.333px" text-align="center" text-anchor="middle" style="font-feature-settings:normal;font-variant-caps:normal;font-variant-ligatures:normal;font-variant-numeric:normal">MIN</tspan>
</text>
<text x="98.046722" y="704.77295" font-family="'DejaVu Sans'" font-size="20px" text-anchor="middle">
<tspan font-family="'DejaVu Sans'" font-size="17.333px" text-align="center" text-anchor="middle" style="font-feature-settings:normal;font-variant-caps:normal;font-variant-ligatures:normal;font-variant-numeric:normal">C</tspan>
</text>
<text x="49.484211" y="704.77295" font-family="'DejaVu Sans'" font-size="20px" text-anchor="middle">
<tspan font-family="'DejaVu Sans'" font-size="17.333px" text-align="center" text-anchor="middle" style="font-feature-settings:normal;font-variant-caps:normal;font-variant-ligatures:normal;font-variant-numeric:normal">MAX</tspan>
</text>
<use transform="matrix(1.2 0 0 1.2 40 555)" width="120.00001%" height="120.00001%" font-family="'DejaVu Sans'" xlink:href="#$I1"/>
<text x="99.490067" y="536.08026" font-family="'DejaVu Sans'" font-size="26.667px" text-anchor="middle">
<tspan font-family="'DejaVu Sans'" font-size="26.667px" text-align="center" text-anchor="middle" style="font-feature-settings:normal;font-variant-caps:normal;font-variant-ligatures:normal;font-variant-numeric:normal">$D1</tspan>
</text>
<text transform="scale(.9987 1.0013)" x="357.33185" y="739.61346" font-family="'DejaVu Sans'" font-size="44px" text-anchor="middle">
<tspan font-family="'DejaVu Sans'" font-size="26.667px" text-align="center" text-anchor="middle" style="font-feature-settings:normal;font-variant-caps:normal;font-variant-ligatures:normal;font-variant-numeric:normal">$L2</tspan>
</text>
<text x="253.28998" y="740.58069" font-family="'DejaVu Sans'" font-size="44px" text-anchor="middle">
<tspan font-family="'DejaVu Sans'" font-size="26.667px" text-align="center" text-anchor="middle" style="font-feature-settings:normal;font-variant-caps:normal;font-variant-ligatures:normal;font-variant-numeric:normal">$H2</tspan>
</text>
<text x="356.25861" y="704.77295" font-family="'DejaVu Sans'" font-size="20px" text-anchor="middle">
<tspan font-family="'DejaVu Sans'" font-size="17.333px" text-align="center" text-anchor="middle" style="font-feature-settings:normal;font-variant-caps:normal;font-variant-ligatures:normal;font-variant-numeric:normal">MIN</tspan>
</text>
<text x="300.04572" y="704.77295" font-family="'DejaVu Sans'" font-size="20px" text-anchor="middle">
<tspan font-family="'DejaVu Sans'" font-size="17.333px" text-align="center" text-anchor="middle" style="font-feature-settings:normal;font-variant-caps:normal;font-variant-ligatures:normal;font-variant-numeric:normal">C</tspan>
</text>
<text x="251.48322" y="704.77295" font-family="'DejaVu Sans'" font-size="20px" text-anchor="middle">
<tspan font-family="'DejaVu Sans'" font-size="17.333px" text-align="center" text-anchor="middle" style="font-feature-settings:normal;font-variant-caps:normal;font-variant-ligatures:normal;font-variant-numeric:normal">MAX</tspan>
</text>
<use transform="matrix(1.2 0 0 1.2 242.46 555)" width="120.00001%" height="120.00001%" font-family="'DejaVu Sans'" xlink:href="#$I2"/>
<text x="302.48877" y="536.08026" font-family="'DejaVu Sans'" font-size="26.667px" text-anchor="middle">
<tspan font-family="'DejaVu Sans'" font-size="26.667px" text-align="center" text-anchor="middle" style="font-feature-settings:normal;font-variant-caps:normal;font-variant-ligatures:normal;font-variant-numeric:normal">$D2</tspan>
</text>
<text transform="scale(.9987 1.0013)" x="557.59216" y="739.61346" font-family="'DejaVu Sans'" font-size="26.667px" text-align="center" text-anchor="middle" style="font-feature-settings:normal;font-variant-caps:normal;font-variant-ligatures:normal;font-variant-numeric:normal">$L3</text>
<text x="450.59018" y="740.58069" font-family="'DejaVu Sans'" font-size="26.667px" text-align="center" text-anchor="middle" style="font-feature-settings:normal;font-variant-caps:normal;font-variant-ligatures:normal;font-variant-numeric:normal">$H3</text>
<text x="556.25861" y="704.77295" font-family="'DejaVu Sans'" font-size="17.333px" text-align="center" text-anchor="middle" style="font-feature-settings:normal;font-variant-caps:normal;font-variant-ligatures:normal;font-variant-numeric:normal">
<tspan font-family="'DejaVu Sans'" font-size="17.333px" text-align="center" text-anchor="middle" style="font-feature-settings:normal;font-variant-caps:normal;font-variant-ligatures:normal;font-variant-numeric:normal">MIN</tspan>
</text>
<text x="500.04572" y="704.77295" font-family="'DejaVu Sans'" font-size="20px" text-anchor="middle">
<tspan font-family="'DejaVu Sans'" font-size="17.333px" text-align="center" text-anchor="middle" style="font-feature-settings:normal;font-variant-caps:normal;font-variant-ligatures:normal;font-variant-numeric:normal">C</tspan>
</text>
<text x="451.48322" y="704.77295" font-family="'DejaVu Sans'" font-size="16px" text-align="center" text-anchor="middle" style="font-feature-settings:normal;font-variant-caps:normal;font-variant-ligatures:normal;font-variant-numeric:normal">
<tspan font-family="'DejaVu Sans'" font-size="17.333px" text-align="center" text-anchor="middle" style="font-feature-settings:normal;font-variant-caps:normal;font-variant-ligatures:normal;font-variant-numeric:normal">MAX</tspan>
</text>
<use transform="matrix(1.2 0 0 1.2 442.46 555)" width="120.00001%" height="120.00001%" font-family="'DejaVu Sans'" xlink:href="#$I3"/>
<text x="502.48877" y="536.08026" font-family="'DejaVu Sans'" font-size="26.667px" text-anchor="middle">
<tspan font-family="'DejaVu Sans'" font-size="26.667px" text-align="center" text-anchor="middle" style="font-feature-settings:normal;font-variant-caps:normal;font-variant-ligatures:normal;font-variant-numeric:normal">$D3</tspan>
</text>
<path d="m200.5 506v240h1v-240z" stroke-width=".49883"/>
<path d="m401.69 505.5v240h1v-240z" stroke-width=".49883"/>
<use transform="matrix(.2 0 0 .2 11 769.8)" width="25%" height="25%" font-family="'DejaVu Sans'" xlink:href="#d"/>
<use transform="matrix(0 .018367 -.020008 0 51.503 770.32)" width="25%" height="25%" font-family="'DejaVu Sans'" xlink:href="#c"/>
<text x="54.339844" y="787.06055" font-family="'DejaVu Sans'" font-size="20px" xml:space="preserve"><tspan x="54.339844" y="787.06055">$sunrise</tspan></text>
<text x="546.60345" y="787.06055" font-family="'DejaVu Sans'" font-size="20px" text-anchor="end" xml:space="preserve"><tspan x="546.60345" y="787.06055">$sunset</tspan></text>
<use transform="matrix(0 -.018367 .020008 0 548.5 788.68)" width="25%" height="25%" font-family="'DejaVu Sans'" xlink:href="#c"/>
<use transform="matrix(.2 0 0 .2 569 769.8)" width="25%" height="25%" font-family="'DejaVu Sans'" xlink:href="#d"/>
<path d="m10 756.12h580v-2h-580z" stroke-width="1.0967"/>
<text x="299.83139" y="776.05945" font-family="'DejaVu Sans'" font-weight="bold" text-anchor="middle">$TIME</text>
<text x="299.74023" y="792.05945" font-family="'DejaVu Sans'" font-weight="bold" text-anchor="middle">$LOC</text>
<path d="m10 391.67h580v1h-580z" stroke-width=".77547"/>
</svg>
